# Blender v3.2.1 OBJ File: 'SM_StoreFront.blend'
# www.blender.org
mtllib SM_Apartment_1.mtl
v -1.660220 0.014162 2.466611
v -1.605579 4.840620 2.414569
v -1.660220 0.014162 -2.386019
v -1.605579 4.840620 -2.334452
v 1.669747 0.014162 2.466611
v 1.605579 4.840620 2.414569
v 1.666006 0.014162 -2.430574
v 1.605579 4.840620 -2.334452
v -1.660220 1.240099 2.466611
v -1.660220 1.240099 -2.386019
v 1.666006 1.240099 -2.430574
v 1.669747 1.240099 2.466611
v -1.605579 1.264979 2.414569
v -1.605579 1.264979 -2.334452
v 1.601956 1.264979 -2.377598
v 1.605579 1.264979 2.414569
v -1.660220 0.014162 -0.768475
v -1.660220 0.014162 0.849068
v -1.605579 4.840620 0.831562
v -1.605579 4.840620 -0.751445
v 1.668500 0.014162 0.818406
v 1.667253 0.014162 -0.782369
v 1.605579 4.840620 -0.751445
v 1.605579 4.840620 0.831562
v 1.667253 1.240099 -0.782369
v 1.668500 1.240099 0.818406
v -1.660220 1.240099 0.849068
v -1.660220 1.240099 -0.768476
v 1.603164 1.264979 -0.780209
v 1.604428 1.333792 0.886271
v -1.605579 1.264979 0.831562
v -1.605579 1.264979 -0.751445
v -1.660220 0.014162 2.386828
v 1.605579 4.840620 2.336489
v 1.669685 1.240099 2.333104
v 1.605487 1.333792 2.266980
v -1.605579 4.840620 2.336489
v 1.669685 0.014162 2.333104
v -1.660220 1.240099 2.386828
v -1.605579 1.264979 2.336489
v 1.953956 0.014162 2.332882
v 1.952770 0.014162 0.818183
v 1.952770 1.240099 0.818183
v 1.953956 1.240099 2.332882
v -1.660220 0.933615 -2.386019
v -1.660220 0.627130 -2.386019
v -1.660220 0.320646 -2.386019
v 1.666006 0.933615 -2.430574
v 1.666006 0.627130 -2.430574
v 1.666006 0.320646 -2.430574
v 1.669747 0.933615 2.466611
v 1.669747 0.627130 2.466611
v 1.669747 0.320646 2.466611
v -1.660220 0.320646 2.466611
v -1.660220 0.627130 2.466611
v -1.660220 0.933615 2.466611
v -1.660220 0.933615 0.849068
v -1.660220 0.627130 0.849068
v -1.660220 0.320646 0.849068
v -1.660220 0.933615 -0.768476
v -1.660220 0.627130 -0.768476
v -1.660220 0.320646 -0.768475
v 1.667253 0.933615 -0.782369
v 1.667253 0.627130 -0.782369
v 1.667253 0.320646 -0.782369
v 1.668500 0.933615 0.818406
v 1.668500 0.627130 0.818406
v 1.668500 0.320646 0.818406
v -1.660220 0.933615 2.386828
v -1.660220 0.627130 2.386828
v -1.660220 0.320646 2.386828
v 1.669685 0.933615 2.333104
v 1.669685 0.627130 2.333104
v 1.669685 0.320646 2.333104
v 1.952770 0.933615 0.818183
v 1.952770 0.627130 0.818183
v 1.952770 0.320646 0.818183
v 1.953956 0.933615 2.332882
v 1.953956 0.627130 2.332882
v 1.953956 0.320646 2.332882
v 2.305769 0.014162 2.332606
v 2.304583 0.014162 0.817908
v 2.304583 0.320646 0.817908
v 2.305769 0.320646 2.332607
v 2.304583 0.933615 0.817908
v 2.304583 0.627130 0.817908
v 2.305769 0.933615 2.332607
v 2.305769 0.627130 2.332607
v 2.659064 0.014162 2.332330
v 2.657878 0.014162 0.817631
v 2.657878 0.320646 0.817631
v 2.659064 0.320646 2.332330
v 2.657878 0.627130 0.817631
v 2.659064 0.627130 2.332330
v 2.920902 0.014162 2.332125
v 2.919716 0.014162 0.817426
v 2.919716 0.320646 0.817426
v 2.920902 0.320646 2.332125
v -1.605579 4.263366 2.414569
v -1.605579 4.263366 -2.334452
v 1.604943 4.110081 -2.202510
v 1.605579 4.263366 2.414569
v 1.605172 4.110081 -0.633691
v 1.605300 4.110081 0.688891
v -1.605579 4.263366 0.831562
v -1.605579 4.263366 -0.751445
v -1.605579 4.263366 2.336489
v 1.605534 4.194552 2.267548
v -1.605579 2.281231 -2.334452
v 1.603104 2.434515 -2.223431
v 1.605579 2.281231 2.414569
v 1.603934 2.434515 -0.651131
v 1.604732 2.434515 0.680818
v -1.605579 2.281231 0.831562
v -1.605579 2.281231 -0.751445
v -1.605579 2.281231 2.336489
v 1.605502 2.281245 2.267168
v -1.605579 2.281231 2.414569
v 1.605071 4.110081 -0.876992
v 1.605395 4.194552 0.897777
v 1.603901 2.434515 -0.894432
v 1.604748 2.280954 0.890080
v 1.604994 4.263366 -2.341418
v 1.605189 4.263366 -0.756089
v 1.602986 2.281231 -2.365335
v 1.603850 2.281231 -0.772034
v 1.604715 2.281231 0.821267
v 1.604371 1.264979 0.817180
v 1.605519 1.264979 2.335780
v 1.605536 2.281231 2.335981
v 1.605384 4.263366 0.829240
v 1.605569 4.263366 2.336375
v 1.647809 2.298186 0.926937
v 1.648523 2.298461 2.230341
v 1.647506 1.401704 0.923331
v 1.648508 1.401704 2.230163
v 1.648421 4.109394 0.934222
v 1.648553 4.109394 2.230701
v 1.584632 4.110096 -0.633684
v 1.584760 4.110096 0.688898
v 1.583394 2.434530 -0.651124
v 1.584192 2.434530 0.680825
v 1.584403 4.110096 -2.202503
v 1.584531 4.110096 -0.876985
v 1.582564 2.434530 -2.223424
v 1.583361 2.434530 -0.894424
vt 0.595018 0.166667
vt 0.625000 0.166667
vt 0.625000 0.250000
vt 0.595018 0.250000
vt 0.625000 0.500000
vt 0.595018 0.500000
vt 0.595018 0.745890
vt 0.625000 0.745890
vt 0.625000 0.750000
vt 0.595018 0.750000
vt 0.625000 1.000000
vt 0.595018 1.000000
vt 0.125000 0.745890
vt 0.375000 0.745890
vt 0.375000 0.750000
vt 0.125000 0.750000
vt 0.875000 0.745890
vt 0.875000 0.750000
vt 0.421736 0.750000
vt 0.437314 0.750000
vt 0.437314 1.000000
vt 0.421736 1.000000
vt 0.421736 0.745890
vt 0.437314 0.745890
vt 0.421736 0.250000
vt 0.437314 0.250000
vt 0.437314 0.500000
vt 0.421736 0.500000
vt 0.421735 0.166667
vt 0.437314 0.166667
vt 0.439286 0.750000
vt 0.439286 1.000000
vt 0.439286 0.745890
vt 0.439286 0.250000
vt 0.439286 0.500000
vt 0.439286 0.166667
vt 0.437314 0.004110
vt 0.439286 0.004110
vt 0.439286 0.083333
vt 0.437314 0.083333
vt 0.439286 0.583333
vt 0.437314 0.583333
vt 0.439286 0.666667
vt 0.437314 0.666667
vt 0.421736 0.004110
vt 0.421736 0.083333
vt 0.421736 0.583333
vt 0.421736 0.666667
vt 0.875000 0.500000
vt 0.875000 0.583333
vt 0.625000 0.583333
vt 0.875000 0.666667
vt 0.625000 0.666667
vt 0.125000 0.500000
vt 0.375000 0.500000
vt 0.375000 0.583333
vt 0.125000 0.583333
vt 0.375000 0.666667
vt 0.125000 0.666667
vt 0.595018 0.583333
vt 0.595018 0.666667
vt 0.595018 0.004110
vt 0.625000 0.004110
vt 0.625000 0.083333
vt 0.595018 0.083333
vt 0.595018 0.000000
vt 0.625000 0.000000
vt 0.421736 0.000000
vt 0.437314 0.000000
vt 0.439286 0.000000
vt 0.390579 0.745890
vt 0.375000 0.745890
vt 0.390579 0.745890
vt 0.421736 0.666667
vt 0.437314 0.666667
vt 0.437314 0.745890
vt 0.421736 0.745890
vt 0.375000 0.666667
vt 0.390579 0.666667
vt 0.390579 0.666667
vt 0.406157 0.666667
vt 0.406157 0.666667
vt 0.421736 0.745890
vt 0.421736 0.666667
vt 0.406157 0.666667
vt 0.390579 0.666667
vt 0.406157 0.745890
vt 0.406157 0.745890
vt 0.406157 0.745890
vt 0.375000 0.000000
vt 0.390579 0.000000
vt 0.390578 0.004110
vt 0.375000 0.004110
vt 0.406157 0.000000
vt 0.406157 0.004110
vt 0.390579 0.583333
vt 0.406157 0.583333
vt 0.390579 0.500000
vt 0.406157 0.500000
vt 0.375000 0.083333
vt 0.390579 0.083333
vt 0.390579 0.166667
vt 0.375000 0.166667
vt 0.406157 0.083333
vt 0.406157 0.166667
vt 0.390579 0.250000
vt 0.375000 0.250000
vt 0.406157 0.250000
vt 0.390579 0.750000
vt 0.406157 0.750000
vt 0.390579 1.000000
vt 0.375000 1.000000
vt 0.406157 1.000000
vt 0.406157 0.666667
vt 0.390579 0.666667
vt 0.390579 0.745890
vt 0.390579 0.745890
vt 0.406157 0.745890
vt 0.375000 0.745890
vt 0.375000 0.666667
vt 0.375000 0.666667
vt 0.390579 0.666667
vt 0.375000 0.666667
vt 0.375000 0.745890
vt 0.390579 0.745890
vt 0.375000 0.745890
vt 0.591444 0.670281
vt 0.591444 0.742276
vt 0.591444 0.742276
vt 0.591444 0.670281
vt 0.492069 0.000000
vt 0.492069 0.004110
vt 0.492069 0.083333
vt 0.492069 0.166667
vt 0.497263 0.588568
vt 0.589824 0.588585
vt 0.589824 0.588585
vt 0.497263 0.588568
vt 0.497263 0.661432
vt 0.497263 0.661432
vt 0.492069 0.750000
vt 0.492069 1.000000
vt 0.492069 0.745890
vt 0.492069 0.250000
vt 0.492069 0.500000
vt 0.492069 0.583333
vt 0.492069 0.666667
vt 0.492070 0.742291
vt 0.492070 0.742291
vt 0.589824 0.661415
vt 0.589824 0.578081
vt 0.589824 0.505252
vt 0.497263 0.505235
vt 0.497263 0.578098
vt 0.492054 0.670266
vt 0.442860 0.670259
vt 0.442860 0.742298
vt 0.492054 0.670266
vt 0.442860 0.670259
vt 0.442860 0.742298
vt 0.589824 0.661415
vt 0.497263 0.505235
vt 0.589824 0.505252
vt 0.589824 0.578081
vt 0.497263 0.578098
vn -1.0000 0.0000 0.0000
vn -0.0011 0.0060 -1.0000
vn 1.0000 -0.0000 -0.0001
vn 0.0000 0.0000 1.0000
vn 0.0000 -1.0000 0.0000
vn 0.0000 1.0000 0.0000
vn 1.0000 0.0000 -0.0005
vn -0.0134 0.0000 -0.9999
vn 0.0000 0.9022 0.4313
vn 0.3616 0.9323 -0.0002
vn -0.0058 0.9027 -0.4302
vn -0.4144 0.9101 0.0000
vn 0.3619 0.9322 -0.0003
vn 0.3618 0.9323 -0.0003
vn 1.0000 0.0000 -0.0008
vn 1.0000 -0.0008 -0.0001
vn 1.0000 -0.0005 -0.0001
vn 0.3616 0.9323 -0.0003
vn 0.0008 -0.0000 1.0000
vn 1.0000 -0.0002 -0.0001
vn -0.0008 0.0000 -1.0000
vn 0.8926 0.4509 -0.0001
vn 0.0003 -0.0104 0.9999
vn 0.0007 1.0000 -0.0000
vn 1.0000 -0.0000 -0.0003
vn -0.0059 0.0060 -1.0000
vn -0.0115 0.0060 -0.9999
vn 1.0000 -0.0000 -0.0006
vn 1.0000 -0.0008 -0.0006
vn 1.0000 -0.0005 -0.0006
vn 0.6503 -0.0002 0.7596
vn 1.0000 -0.0003 -0.0001
vn 1.0000 -0.0007 -0.0003
vn 1.0000 -0.0003 -0.0002
vn 1.0000 -0.0004 -0.0006
vn 1.0000 -0.0006 -0.0001
vn 1.0000 -0.0010 -0.0002
vn 1.0000 -0.0003 -0.0005
vn 1.0000 -0.0002 -0.0008
vn 1.0000 -0.0002 -0.0003
vn 1.0000 -0.0002 -0.0007
vn 0.8446 -0.5354 -0.0006
vn 0.6496 0.0028 -0.7603
vn 1.0000 -0.0005 -0.0003
vn 1.0000 -0.0009 -0.0003
vn -0.0003 0.0104 -0.9999
vn -0.0007 -1.0000 -0.0000
vn -0.0003 0.0048 -1.0000
vn 0.0003 -0.0125 0.9999
usemtl None
s off
f 106/1/1 20/2/1 4/3/1 100/4/1
f 100/4/2 4/3/2 8/5/2 123/6/2
f 132/7/3 34/8/3 6/9/3 102/10/3
f 102/10/4 6/9/4 2/11/4 99/12/4
f 33/13/5 38/14/5 5/15/5 1/16/5
f 34/8/6 37/17/6 2/18/6 6/9/6
f 51/19/4 12/20/4 9/21/4 56/22/4
f 72/23/7 35/24/7 12/20/7 51/19/7
f 45/25/8 10/26/8 11/27/8 48/28/8
f 60/29/1 28/30/1 10/26/1 45/25/1
f 12/20/9 16/31/9 13/32/9 9/21/9
f 35/24/10 129/33/10 16/31/10 12/20/10
f 10/26/11 14/34/11 15/35/11 11/27/11
f 28/30/12 32/36/12 14/34/12 10/26/12
f 39/37/12 40/38/12 31/39/12 27/40/12
f 27/40/12 31/39/12 32/36/12 28/30/12
f 11/27/13 15/35/13 29/41/13 25/42/13
f 25/42/14 29/41/14 128/43/14 26/44/14
f 69/45/1 39/37/1 27/40/1 57/46/1
f 57/46/1 27/40/1 28/30/1 60/29/1
f 48/28/15 11/27/15 25/42/15 63/47/15
f 63/47/15 25/42/15 26/44/15 66/48/15
f 8/5/6 4/49/6 20/50/6 23/51/6
f 23/51/6 20/50/6 19/52/6 24/53/6
f 3/54/5 7/55/5 22/56/5 17/57/5
f 17/57/5 22/56/5 21/58/5 18/59/5
f 123/6/16 8/5/16 23/51/16 124/60/16
f 124/60/17 23/51/17 24/53/17 131/61/17
f 107/62/1 37/63/1 19/64/1 105/65/1
f 105/65/1 19/64/1 20/2/1 106/1/1
f 99/66/1 2/67/1 37/63/1 107/62/1
f 56/68/1 9/69/1 39/37/1 69/45/1
f 9/69/12 13/70/12 40/38/12 39/37/12
f 26/44/18 128/43/18 129/33/18 35/24/18
f 74/71/19 38/14/19 41/72/19 80/73/19
f 24/53/6 19/52/6 37/17/6 34/8/6
f 18/59/5 21/58/5 38/14/5 33/13/5
f 131/61/20 24/53/20 34/8/20 132/7/20
f 75/74/15 43/75/15 44/76/15 78/77/15
f 66/48/21 26/44/21 43/75/21 75/74/21
f 26/44/6 35/24/6 44/76/6 43/75/6
f 38/14/5 21/58/5 42/78/5 41/72/5
f 21/58/21 68/79/21 77/80/21 42/78/21
f 68/79/21 67/81/21 76/82/21 77/80/21
f 67/81/21 66/48/21 75/74/21 76/82/21
f 75/74/6 78/77/6 87/83/6 85/84/6
f 77/80/21 76/82/21 86/85/21 83/86/21
f 78/77/19 79/87/19 88/88/19 87/83/19
f 35/24/19 72/23/19 78/77/19 44/76/19
f 72/23/19 73/89/19 79/87/19 78/77/19
f 73/89/19 74/71/19 80/73/19 79/87/19
f 1/90/1 54/91/1 71/92/1 33/93/1
f 54/91/1 55/94/1 70/95/1 71/92/1
f 55/94/1 56/68/1 69/45/1 70/95/1
f 22/56/15 65/96/15 68/79/15 21/58/15
f 65/96/15 64/97/15 67/81/15 68/79/15
f 64/97/15 63/47/15 66/48/15 67/81/15
f 7/55/15 50/98/15 65/96/15 22/56/15
f 50/98/15 49/99/15 64/97/15 65/96/15
f 49/99/15 48/28/15 63/47/15 64/97/15
f 18/100/1 59/101/1 62/102/1 17/103/1
f 59/101/1 58/104/1 61/105/1 62/102/1
f 58/104/1 57/46/1 60/29/1 61/105/1
f 33/93/1 71/92/1 59/101/1 18/100/1
f 71/92/1 70/95/1 58/104/1 59/101/1
f 70/95/1 69/45/1 57/46/1 58/104/1
f 17/103/1 62/102/1 47/106/1 3/107/1
f 62/102/1 61/105/1 46/108/1 47/106/1
f 61/105/1 60/29/1 45/25/1 46/108/1
f 3/107/8 47/106/8 50/98/8 7/55/8
f 47/106/8 46/108/8 49/99/8 50/98/8
f 46/108/8 45/25/8 48/28/8 49/99/8
f 38/14/7 74/71/7 53/109/7 5/15/7
f 74/71/7 73/89/7 52/110/7 53/109/7
f 73/89/7 72/23/7 51/19/7 52/110/7
f 5/15/4 53/109/4 54/111/4 1/112/4
f 53/109/4 52/110/4 55/113/4 54/111/4
f 52/110/4 51/19/4 56/22/4 55/113/4
f 83/86/21 86/85/21 93/114/21 91/115/21
f 88/88/19 84/116/19 92/117/19 94/118/19
f 86/85/15 85/84/15 87/83/15 88/88/15
f 80/73/19 41/72/19 81/119/19 84/116/19
f 42/78/21 77/80/21 83/86/21 82/120/21
f 79/87/19 80/73/19 84/116/19 88/88/19
f 76/82/21 75/74/21 85/84/21 86/85/21
f 41/72/5 42/78/5 82/120/5 81/119/5
f 90/121/21 91/115/21 97/122/21 96/123/21
f 91/115/15 93/114/15 94/118/15 92/117/15
f 84/116/19 81/119/19 89/124/19 92/117/19
f 81/119/5 82/120/5 90/121/5 89/124/5
f 82/120/21 83/86/21 91/115/21 90/121/21
f 86/85/6 88/88/6 94/118/6 93/114/6
f 96/123/15 97/122/15 98/125/15 95/126/15
f 92/117/19 89/124/19 95/126/19 98/125/19
f 89/124/5 90/121/5 96/123/5 95/126/5
f 91/115/6 92/117/6 98/125/6 97/122/6
f 120/127/22 108/128/22 138/129/22 137/130/22
f 118/131/1 99/66/1 107/62/1 116/132/1
f 114/133/1 105/65/1 106/1/1 115/134/1
f 116/132/1 107/62/1 105/65/1 114/133/1
f 112/135/23 103/136/23 139/137/23 141/138/23
f 113/139/24 112/135/24 141/138/24 142/140/24
f 111/141/4 102/10/4 99/12/4 118/142/4
f 130/143/25 132/7/25 102/10/25 111/141/25
f 109/144/26 100/4/26 123/6/26 125/145/26
f 115/134/1 106/1/1 100/4/1 109/144/1
f 32/36/1 115/134/1 109/144/1 14/34/1
f 14/34/27 109/144/27 125/145/27 15/35/27
f 129/33/28 130/143/28 111/141/28 16/31/28
f 16/31/4 111/141/4 118/142/4 13/32/4
f 15/35/29 125/145/29 126/146/29 29/41/29
f 29/41/30 126/146/30 127/147/30 128/43/30
f 40/38/1 116/132/1 114/133/1 31/39/1
f 31/39/1 114/133/1 115/134/1 32/36/1
f 13/70/1 118/131/1 116/132/1 40/38/1
f 108/128/31 117/148/31 134/149/31 138/129/31
f 104/150/32 103/136/32 124/60/32 131/61/32
f 103/136/33 112/135/33 126/146/33 124/60/33
f 113/139/34 104/150/34 131/61/34 127/147/34
f 112/135/35 113/139/35 127/147/35 126/146/35
f 119/151/36 101/152/36 123/6/36 124/60/36
f 101/152/37 110/153/37 125/145/37 123/6/37
f 121/154/33 119/151/33 124/60/33 126/146/33
f 110/153/30 121/154/30 126/146/30 125/145/30
f 122/155/38 30/156/38 128/43/38 127/147/38
f 30/156/39 36/157/39 129/33/39 128/43/39
f 36/157/7 117/148/7 130/143/7 129/33/7
f 108/128/20 120/127/20 131/61/20 132/7/20
f 120/127/38 122/155/38 127/147/38 131/61/38
f 117/148/7 108/128/7 132/7/7 130/143/7
f 133/158/40 137/130/40 138/129/40 134/149/40
f 135/159/41 133/158/41 134/149/41 136/160/41
f 36/157/42 30/156/42 135/159/42 136/160/42
f 122/155/43 120/127/43 137/130/43 133/158/43
f 117/148/31 36/157/31 136/160/31 134/149/31
f 30/156/43 122/155/43 133/158/43 135/159/43
f 141/138/44 139/137/44 140/161/44 142/140/44
f 145/162/45 143/163/45 144/164/45 146/165/45
f 119/151/46 121/154/46 146/165/46 144/164/46
f 101/152/47 119/151/47 144/164/47 143/163/47
f 104/150/48 113/139/48 142/140/48 140/161/48
f 121/154/24 110/153/24 145/162/24 146/165/24
f 103/136/47 104/150/47 140/161/47 139/137/47
f 110/153/49 101/152/49 143/163/49 145/162/49
