# This file uses centimeters as units for non-parametric coordinates.

mtllib SM_Building_C_1.mtl
g default
v 5.000000 7.200000 -5.000000
v 5.000000 9.200000 -5.000000
v 5.000000 7.200000 5.000000
v 5.000000 9.200000 5.000000
v -5.000000 7.200000 -5.000000
v -5.000000 9.200000 -5.000000
v -5.000000 7.200000 5.000000
v -5.000000 9.200000 5.000000
vt -0.000002 0.000945
vt 0.125214 0.000945
vt 0.125102 0.998930
vt 0.000458 0.998930
vt 0.125214 0.998930
vt -0.000002 0.998930
vt 0.000110 0.000945
vt 0.124754 0.000945
vt 0.998008 0.913378
vt 0.544226 0.913378
vt 0.544226 0.459596
vt 0.998008 0.459596
vt 0.084310 0.459596
vt 0.538091 0.459596
vt 0.538091 0.913378
vt 0.084310 0.913378
vt 0.125102 0.998930
vt 0.000458 0.998930
vt -0.000002 0.000945
vt 0.125214 0.000945
vt 0.125102 0.998930
vt 0.000458 0.998930
vt -0.000002 0.000945
vt 0.125214 0.000945
vn 1.000000 0.000000 0.000000
vn 1.000000 0.000000 0.000000
vn 1.000000 0.000000 0.000000
vn 1.000000 0.000000 0.000000
vn 0.000000 0.000000 1.000000
vn 0.000000 0.000000 1.000000
vn 0.000000 0.000000 1.000000
vn 0.000000 0.000000 1.000000
vn -1.000000 0.000000 0.000000
vn -1.000000 0.000000 0.000000
vn -1.000000 0.000000 0.000000
vn -1.000000 0.000000 0.000000
vn 0.000000 0.000000 -1.000000
vn 0.000000 0.000000 -1.000000
vn 0.000000 0.000000 -1.000000
vn 0.000000 0.000000 -1.000000
vn 0.000000 -1.000000 0.000000
vn 0.000000 -1.000000 0.000000
vn 0.000000 -1.000000 0.000000
vn 0.000000 -1.000000 0.000000
vn 0.000000 1.000000 0.000000
vn 0.000000 1.000000 0.000000
vn 0.000000 1.000000 0.000000
vn 0.000000 1.000000 0.000000
s off
g SM_Building_C_1:Mesh
usemtl SM_Building_A_1:null_
f 1/1/1 2/2/2 4/3/3 3/4/4
f 3/17/5 4/18/6 8/19/7 7/20/8
f 7/5/9 8/6/10 6/7/11 5/8/12
f 5/21/13 6/22/14 2/23/15 1/24/16
f 3/9/17 7/10/18 5/11/19 1/12/20
f 8/13/21 4/14/22 2/15/23 6/16/24
