# This file uses centimeters as units for non-parametric coordinates.

mtllib SM_Building_A_1.mtl
g default
v -5.000000 0.000000 -5.000000
v -5.000000 3.200000 -5.000000
v 5.000000 0.000000 -5.000000
v 5.000000 3.200000 -5.000000
v -5.000000 0.000000 5.000000
v -5.000000 3.200000 5.000000
v 5.000000 0.000000 5.000000
v 5.000000 3.200000 5.000000
v -5.000000 1.066667 -5.000000
v 5.000000 1.066667 -5.000000
v 5.000000 0.999999 5.000000
v -5.000000 0.999999 5.000000
v -0.500000 0.000005 5.000000
v 0.500000 0.000000 5.000000
v 0.500000 0.999999 5.000000
v -0.500000 1.000004 5.000000
v -0.500000 1.997181 5.000000
v 0.500000 2.002819 5.000000
v -0.000000 0.000003 5.000000
v -0.000000 1.000001 5.000000
v -0.000000 2.000000 5.000000
v 0.000000 3.200000 -5.000000
v 0.000000 1.066667 -5.000000
v 0.000000 3.200000 5.000000
v 0.000000 0.000000 -5.000000
vt 0.900000 1.000000
vt 0.387718 1.003703
vt 0.387718 0.509462
vt 0.598595 0.509462
vt 0.387718 0.015222
vt 0.900000 0.000000
vt 1.000000 1.000000
vt 0.999903 0.500993
vt 1.000000 0.000000
vt 0.900000 0.999763
vt 0.384423 1.003703
vt 0.384423 0.509462
vt 0.503041 0.509462
vt 0.702449 0.101281
vt 0.799964 0.101281
vt 0.384423 0.015222
vt 0.900000 0.000000
vt 0.799964 0.004040
vt 0.503320 0.460038
vt 0.799964 0.052661
vt 1.000000 1.000000
vt 1.000000 0.550000
vt 1.000000 0.450000
vt 1.000000 0.000000
vt 0.897205 0.052661
vt 0.502744 0.978395
vt 0.044018 0.968288
vt 0.044018 0.761656
vt 0.044018 0.738697
vt 0.503200 0.738697
vt 0.044018 0.715738
vt 0.045062 0.510530
vt 0.503200 0.509106
vt 0.028009 0.509771
vt 0.487191 0.509771
vt 0.487191 0.739362
vt 0.028009 0.739362
vt 0.487191 0.968954
vt 0.028009 0.968954
vt 0.900000 1.000000
vt 0.384423 1.003703
vt 0.384423 0.015222
vt 0.601889 0.015222
vt 1.000000 1.000000
vt 1.000000 0.000000
vt 0.900000 1.000000
vt 0.601889 0.015222
vt 0.601889 1.003703
vt 0.391013 1.003703
vt 0.999956 1.000323
vt 1.000000 0.000000
vt 0.702997 0.004040
vt 0.900000 0.450000
vt 0.702723 0.052661
vt 0.897204 0.004040
vt 0.601889 0.558886
vt 0.897205 0.101281
vt 0.502762 0.558886
vt 0.903502 0.500993
vt 0.598595 0.015222
vt 0.601889 0.460038
vt 0.601889 0.015222
vt 0.900000 0.550000
vt 0.601889 1.003703
vt 0.598595 1.003703
vt 0.900000 0.000000
vt 0.384423 0.015222
vt 0.900000 0.000000
vt 0.595299 1.003703
vn 0.000000 0.000000 -1.000000
vn 0.000000 0.000000 -1.000000
vn 0.000000 0.000000 -1.000000
vn 0.000000 0.000000 -1.000000
vn 1.000000 0.000000 0.000000
vn 1.000000 0.000000 0.000000
vn 1.000000 0.000000 0.000000
vn 1.000000 0.000000 0.000000
vn -0.000000 0.000000 1.000000
vn -0.000000 0.000000 1.000000
vn -0.000000 0.000000 1.000000
vn -0.000000 0.000000 1.000000
vn -0.000000 0.000000 1.000000
vn -0.000000 0.000000 1.000000
vn -1.000000 0.000000 -0.000000
vn -1.000000 0.000000 -0.000000
vn -1.000000 0.000000 -0.000000
vn -1.000000 0.000000 -0.000000
vn 0.000000 -1.000000 0.000000
vn 0.000000 -1.000000 0.000000
vn 0.000000 -1.000000 0.000000
vn 0.000000 -1.000000 0.000000
vn 0.000000 -1.000000 0.000000
vn 0.000000 1.000000 0.000000
vn 0.000000 1.000000 0.000000
vn 0.000000 1.000000 0.000000
vn 0.000000 1.000000 0.000000
vn -1.000000 0.000000 -0.000000
vn -1.000000 0.000000 -0.000000
vn -1.000000 0.000000 -0.000000
vn -1.000000 0.000000 -0.000000
vn -0.000000 0.000000 1.000000
vn -0.000000 0.000000 1.000000
vn -0.000000 0.000000 1.000000
vn -0.000000 0.000000 1.000000
vn 1.000000 0.000000 0.000000
vn 1.000000 0.000000 0.000000
vn 1.000000 0.000000 0.000000
vn 1.000000 0.000000 0.000000
vn 0.000000 0.000000 -1.000000
vn 0.000000 0.000000 -1.000000
vn 0.000000 0.000000 -1.000000
vn 0.000000 0.000000 -1.000000
vn -0.000000 0.000000 1.000000
vn -0.000000 0.000000 1.000000
vn -0.000000 0.000000 1.000000
vn -0.000000 0.000000 1.000000
vn -0.000000 0.000000 1.000000
vn -0.000000 0.000000 1.000000
vn -0.000000 0.000000 1.000000
vn -0.000000 0.000000 1.000000
vn -0.000000 0.000000 1.000000
vn -0.000000 0.000000 1.000000
vn -0.000000 0.000000 1.000000
vn -0.000000 0.000000 1.000000
vn -0.000000 0.000000 1.000000
vn -0.000000 0.000000 1.000000
vn -0.000000 0.000000 1.000000
vn -0.000000 0.000000 1.000000
vn -0.000000 0.000000 1.000000
vn -0.000000 0.000000 1.000000
vn -0.000000 0.000000 1.000000
vn -0.000000 0.000000 1.000000
vn 0.000000 1.000000 0.000000
vn 0.000000 1.000000 0.000000
vn 0.000000 1.000000 0.000000
vn 0.000000 1.000000 0.000000
vn -0.000000 0.000000 1.000000
vn -0.000000 0.000000 1.000000
vn -0.000000 0.000000 1.000000
vn -0.000000 0.000000 1.000000
vn -0.000000 0.000000 1.000000
vn -0.000000 0.000000 1.000000
vn 0.000000 0.000000 -1.000000
vn 0.000000 0.000000 -1.000000
vn 0.000000 0.000000 -1.000000
vn 0.000000 0.000000 -1.000000
vn 0.000000 0.000000 -1.000000
vn 0.000000 0.000000 -1.000000
vn 0.000000 0.000000 -1.000000
vn 0.000000 0.000000 -1.000000
vn 0.000000 -1.000000 0.000000
vn 0.000000 -1.000000 0.000000
vn 0.000000 -1.000000 0.000000
vn 0.000000 -1.000000 0.000000
vn 0.000000 -1.000000 0.000000
s off
g SM_Building_A_2:Mesh
usemtl SM_Building_A_1:null_
f 9/65/1 2/2/2 22/3/3 23/4/4
f 10/69/5 4/41/6 8/42/7 11/43/8
f 11/64/9 8/11/10 24/12/11 21/13/12 18/58/13 15/56/14
f 12/67/15 6/47/16 2/48/17 9/49/18
f 3/26/19 7/27/20 14/28/21 19/29/22 25/30/23
f 8/34/24 4/35/25 22/36/26 24/37/27
f 5/50/28 12/46/29 9/66/30 1/51/31
f 7/21/32 11/10/33 15/63/34 14/22/35
f 3/44/36 10/40/37 11/68/38 7/45/39
f 1/7/40 9/1/41 23/59/42 25/8/43
f 19/25/44 20/20/45 16/18/46 13/55/47
f 13/23/48 16/53/49 12/17/50 5/24/51
f 20/20/52 21/54/53 17/52/54 16/18/55
f 15/15/56 18/14/57 21/54/58 20/20/59
f 14/57/60 15/15/61 20/20/62 19/25/63
f 24/37/64 22/36/65 2/38/66 6/39/67
f 21/13/68 24/12/69 6/16/70 12/62/71 16/61/72 17/19/73
f 25/8/74 23/59/75 10/6/76 3/9/77
f 23/4/78 22/3/79 4/5/80 10/60/81
f 25/30/82 19/29/83 13/31/84 5/32/85 1/33/86
