# This file uses meters as units for non-parametric coordinates.

mtllib SM_Box.mtl
g default
v -196.045853 -196.045853 196.045853
v 196.045853 -196.045853 196.045853
v 196.045853 196.045853 196.045868
v -196.045853 196.045853 196.045868
v 196.045853 -196.045853 -196.045853
v 196.045853 196.045853 -196.045868
v -184.900497 196.045853 184.900497
v 184.900497 196.045853 184.900497
v 184.900497 -145.778458 184.900497
v -184.900497 -145.778458 184.900497
v 184.900497 196.045853 -184.900497
v 184.900497 -145.778458 -184.900497
v -184.900497 196.045853 -184.900497
v -196.045853 196.045853 -196.045868
v -184.900497 -145.778458 -184.900497
v -196.045853 -196.045853 -196.045853
v 196.045853 181.142838 196.045868
v -196.045853 181.142960 196.045868
v -196.045853 181.142960 -196.045868
v 196.045853 181.142838 -196.045868
v 196.045853 55.646912 373.652771
v -196.045853 55.647018 373.652771
v 196.045853 70.549896 373.652771
v -196.045853 70.549896 373.652771
v 196.045853 35.994171 -360.703003
v -196.045853 35.994171 -360.703003
v 196.045853 21.091156 -360.703003
v -196.045853 21.091278 -360.703003
v -369.222046 38.420502 196.045868
v -369.222046 38.420502 -196.045868
v -369.222046 53.323395 196.045868
v -369.222046 53.323395 -196.045868
v 268.295471 7.576157 -196.045868
v 268.295471 7.576157 196.045868
v 279.029266 17.914627 -196.045868
v 279.029266 17.914627 196.045868
vt 0.375000 0.000000
vt 0.625000 0.000000
vt 0.625000 0.250000
vt 0.375000 0.250000
vt 0.875000 0.000000
vt 0.875000 0.250000
vt 0.375000 0.231087
vt 0.625000 0.231087
vt 0.625000 0.000000
vt 0.375000 0.000000
vt 0.875000 0.231087
vt 0.875000 0.000000
vt 0.617894 0.257106
vt 0.382106 0.257106
vt 0.382106 0.492894
vt 0.375000 0.500000
vt 0.625000 0.500000
vt 0.617894 0.492894
vt 0.375000 0.750000
vt 0.375000 1.000000
vt 0.625000 1.000000
vt 0.625000 0.750000
vt 0.125000 0.231087
vt 0.125000 0.000000
vt 0.625000 0.518913
vt 0.375000 0.518913
vt 0.375000 0.750000
vt 0.625000 0.750000
vt 0.625000 1.000000
vt 0.375000 1.000000
vt 0.125000 0.000000
vt 0.125000 0.250000
vt 0.625000 0.240498
vt 0.375000 0.240498
vt 0.125000 0.240498
vt 0.375000 0.509502
vt 0.875000 0.240498
vt 0.625000 0.509502
vt 0.375000 0.240498
vt 0.625000 0.240498
vt 0.625000 0.250000
vt 0.375000 0.250000
vt 0.375000 0.500000
vt 0.625000 0.500000
vt 0.625000 0.509502
vt 0.375000 0.509502
vt 0.125000 0.240498
vt 0.375000 0.240498
vt 0.375000 0.250000
vt 0.125000 0.250000
vt 0.625000 0.240498
vt 0.875000 0.240498
vt 0.875000 0.250000
vt 0.625000 0.250000
vn 0.000000 -0.000000 1.000000
vn 0.000000 -0.000000 1.000000
vn 0.000000 -0.000000 1.000000
vn 0.000000 -0.000000 1.000000
vn 1.000000 -0.000000 0.000000
vn 1.000000 -0.000000 0.000000
vn 1.000000 -0.000000 0.000000
vn 1.000000 -0.000000 0.000000
vn 0.000000 0.000000 -1.000000
vn 0.000000 0.000000 -1.000000
vn 0.000000 0.000000 -1.000000
vn 0.000000 0.000000 -1.000000
vn -1.000000 0.000000 0.000000
vn -1.000000 0.000000 0.000000
vn -1.000000 0.000000 0.000000
vn -1.000000 0.000000 0.000000
vn 0.000000 1.000000 0.000000
vn 0.000000 1.000000 0.000000
vn 0.000000 1.000000 0.000000
vn 0.000000 1.000000 0.000000
vn 0.000000 1.000000 0.000000
vn 0.000000 1.000000 0.000000
vn 0.000000 1.000000 0.000000
vn 0.000000 1.000000 0.000000
vn 0.000000 1.000000 0.000000
vn 0.000000 1.000000 0.000000
vn 0.000000 1.000000 0.000000
vn 0.000000 1.000000 0.000000
vn 1.000000 0.000000 0.000000
vn 1.000000 0.000000 0.000000
vn 1.000000 0.000000 0.000000
vn 1.000000 0.000000 0.000000
vn 0.000000 0.000000 1.000000
vn 0.000000 0.000000 1.000000
vn 0.000000 0.000000 1.000000
vn 0.000000 0.000000 1.000000
vn 0.000000 -1.000000 0.000000
vn 0.000000 -1.000000 0.000000
vn 0.000000 -1.000000 0.000000
vn 0.000000 -1.000000 0.000000
vn -1.000000 -0.000000 0.000000
vn -1.000000 -0.000000 0.000000
vn -1.000000 -0.000000 0.000000
vn -1.000000 -0.000000 0.000000
vn 0.000000 -0.000000 -1.000000
vn 0.000000 -0.000000 -1.000000
vn 0.000000 -0.000000 -1.000000
vn 0.000000 -0.000000 -1.000000
vn 0.000000 0.000000 1.000000
vn 0.000000 0.000000 1.000000
vn 0.000000 0.000000 1.000000
vn 0.000000 0.000000 1.000000
vn -1.000000 0.000000 0.000000
vn -1.000000 0.000000 0.000000
vn -1.000000 0.000000 0.000000
vn -1.000000 0.000000 0.000000
vn -0.000000 0.000000 -1.000000
vn -0.000000 0.000000 -1.000000
vn -0.000000 0.000000 -1.000000
vn -0.000000 0.000000 -1.000000
vn 0.693719 -0.720246 0.000000
vn 0.693719 -0.720246 0.000000
vn 0.693719 -0.720246 0.000000
vn 0.693719 -0.720246 0.000000
vn -0.000000 -0.816694 -0.577071
vn -0.000000 -0.816694 -0.577071
vn -0.000000 -0.816694 -0.577071
vn -0.000000 -0.816694 -0.577071
vn 1.000000 0.000000 0.000000
vn 1.000000 0.000000 0.000000
vn 1.000000 0.000000 0.000000
vn 1.000000 0.000000 0.000000
vn 0.000000 0.816694 0.577071
vn 0.000000 0.816694 0.577071
vn 0.000000 0.816694 0.577071
vn 0.000000 0.816694 0.577071
vn -1.000000 0.000000 0.000000
vn -1.000000 0.000000 0.000000
vn -1.000000 0.000000 0.000000
vn -1.000000 0.000000 0.000000
vn 0.000000 0.717064 -0.697008
vn 0.000000 0.717064 -0.697008
vn 0.000000 0.717064 -0.697008
vn 0.000000 0.717064 -0.697008
vn 1.000000 0.000000 0.000000
vn 1.000000 0.000000 0.000000
vn 1.000000 0.000000 0.000000
vn 1.000000 0.000000 0.000000
vn -0.000000 -0.717064 0.697008
vn -0.000000 -0.717064 0.697008
vn -0.000000 -0.717064 0.697008
vn -0.000000 -0.717064 0.697008
vn -1.000000 0.000000 0.000000
vn -1.000000 0.000000 0.000000
vn -1.000000 0.000000 0.000000
vn -1.000000 0.000000 0.000000
vn 0.635991 -0.771697 0.000000
vn 0.635991 -0.771697 0.000000
vn 0.635991 -0.771697 0.000000
vn 0.635991 -0.771697 0.000000
vn 0.000000 0.000000 1.000000
vn 0.000000 0.000000 1.000000
vn 0.000000 0.000000 1.000000
vn 0.000000 0.000000 1.000000
vn -0.635991 0.771697 0.000000
vn -0.635991 0.771697 0.000000
vn -0.635991 0.771697 0.000000
vn -0.635991 0.771697 0.000000
vn 0.000000 0.000000 -1.000000
vn 0.000000 0.000000 -1.000000
vn 0.000000 0.000000 -1.000000
vn 0.000000 0.000000 -1.000000
vn -0.923209 -0.384299 0.000000
vn -0.923209 -0.384299 0.000000
vn -0.923209 -0.384299 0.000000
vn -0.923209 -0.384299 0.000000
vn 0.000000 0.000000 -1.000000
vn 0.000000 0.000000 -1.000000
vn 0.000000 0.000000 -1.000000
vn 0.000000 0.000000 -1.000000
vn 0.906465 0.422282 0.000000
vn 0.906465 0.422282 0.000000
vn 0.906465 0.422282 0.000000
vn 0.906465 0.422282 0.000000
vn 0.000000 0.000000 1.000000
vn 0.000000 0.000000 1.000000
vn 0.000000 0.000000 1.000000
vn 0.000000 0.000000 1.000000
s off
g polySurface1
usemtl initialShadingGroup
f 1/1/1 2/2/2 17/33/3 18/34/4
f 2/2/5 5/5/6 20/37/7 17/33/8
f 7/7/9 8/8/10 9/9/11 10/10/12
f 8/8/13 11/11/14 12/12/15 9/9/16
s 1
f 4/4/17 3/3/18 8/13/19 7/14/20
f 11/18/21 6/17/22 14/16/23 13/15/24
s off
f 15/19/25 10/20/26 9/21/27 12/22/28
f 13/23/29 7/7/30 10/10/31 15/24/32
f 11/25/33 13/26/34 15/19/35 12/22/36
f 16/27/37 5/28/38 2/29/39 1/30/40
f 16/31/41 1/1/42 18/34/43 19/35/44
f 19/36/45 20/38/46 5/28/47 16/27/48
s 1
f 4/4/17 7/14/20 13/15/24 14/16/23
f 3/3/18 6/17/22 11/18/21 8/13/19
s off
f 22/39/49 21/40/50 23/41/51 24/42/52
f 30/47/53 29/48/54 31/49/55 32/50/56
f 26/43/57 25/44/58 27/45/59 28/46/60
f 34/51/61 33/52/62 35/53/63 36/54/64
f 18/34/65 17/33/66 21/40/67 22/39/68
f 17/33/69 3/3/70 23/41/71 21/40/72
f 3/3/73 4/4/74 24/42/75 23/41/76
f 4/4/77 18/34/78 22/39/79 24/42/80
f 14/16/81 6/17/82 25/44/83 26/43/84
f 6/17/85 20/38/86 27/45/87 25/44/88
f 20/38/89 19/36/90 28/46/91 27/45/92
f 19/36/93 14/16/94 26/43/95 28/46/96
f 19/35/97 18/34/98 29/48/99 30/47/100
f 18/34/101 4/4/102 31/49/103 29/48/104
f 4/4/105 14/32/106 32/50/107 31/49/108
f 14/32/109 19/35/110 30/47/111 32/50/112
f 17/33/113 20/37/114 33/52/115 34/51/116
f 20/37/117 6/6/118 35/53/119 33/52/120
f 6/6/121 3/3/122 36/54/123 35/53/124
f 3/3/125 17/33/126 34/51/127 36/54/128
