# Blender v3.2.1 OBJ File: 'SM_Blockout_BusStop.blend'
# www.blender.org
mtllib SM_Blockout_BusStop.mtl
o Cube
v 1.000000 2.570396 -2.192169
v 1.000000 0.064499 -2.192169
v 1.000000 2.570396 2.192169
v 1.000000 0.064499 2.192169
v -1.000000 3.000000 -2.621773
v -1.000000 0.000000 -2.621773
v -1.000000 3.000000 2.621773
v -1.000000 0.000000 2.621773
v 1.000000 3.000000 -2.621773
v 1.000000 0.000000 -2.621773
v 1.000000 3.000000 2.621773
v 1.000000 0.000000 2.621773
v -0.540293 2.570396 -2.192169
v -0.540293 0.064499 -2.192169
v -0.540293 2.570396 2.192169
v -0.540293 0.064499 2.192169
vt 0.625000 0.500000
vt 0.875000 0.500000
vt 0.875000 0.750000
vt 0.625000 0.750000
vt 0.375000 0.750000
vt 0.625000 1.000000
vt 0.375000 1.000000
vt 0.375000 0.000000
vt 0.625000 0.000000
vt 0.625000 0.250000
vt 0.375000 0.250000
vt 0.125000 0.500000
vt 0.375000 0.500000
vt 0.125000 0.750000
vt 0.589200 0.520483
vt 0.589200 0.729518
vt 0.589200 0.729518
vt 0.589200 0.520483
vt 0.410800 0.520482
vt 0.410800 0.729517
vt 0.410800 0.520482
vt 0.410800 0.729517
vn 0.0000 1.0000 0.0000
vn 0.0000 0.0000 1.0000
vn -1.0000 0.0000 0.0000
vn 0.0000 -1.0000 0.0000
vn 0.0000 0.0000 -1.0000
vn 1.0000 0.0000 0.0000
usemtl Material
s off
f 9/1/1 5/2/1 7/3/1 11/4/1
f 12/5/2 11/4/2 7/6/2 8/7/2
f 8/8/3 7/9/3 5/10/3 6/11/3
f 6/12/4 10/13/4 12/5/4 8/14/4
f 1/15/4 3/16/4 15/17/4 13/18/4
f 6/11/5 5/10/5 9/1/5 10/13/5
f 1/15/6 2/19/6 10/13/6 9/1/6
f 4/20/6 3/16/6 11/4/6 12/5/6
f 3/16/6 1/15/6 9/1/6 11/4/6
f 2/19/6 4/20/6 12/5/6 10/13/6
f 14/21/6 13/18/6 15/17/6 16/22/6
f 2/19/2 1/15/2 13/18/2 14/21/2
f 4/20/1 2/19/1 14/21/1 16/22/1
f 3/16/5 4/20/5 16/22/5 15/17/5
