# This file uses centimeters as units for non-parametric coordinates.

mtllib SM_PepperSpray_UV.mtl
g default
v -0.133558 0.000000 -0.231329
v -0.776790 4.497115 0.000000
v 0.133558 0.000000 -0.231329
v -0.523188 4.497115 0.672720
v 0.267116 0.000000 0.000000
v 0.523188 4.497115 0.672720
v 0.133558 0.000000 0.231329
v 0.776790 4.497115 0.000000
v -0.133558 0.000000 0.231329
v 0.523188 4.497115 -0.672720
v -0.267116 0.000000 0.000000
v -0.523188 4.497115 -0.672720
v -0.500000 0.000000 -0.866025
v 0.500000 0.000000 -0.866025
v 0.523188 4.000000 -0.866025
v -0.523188 4.000000 -0.866025
v 1.000000 0.000000 0.000000
v 1.000000 4.000000 0.000000
v 0.500000 0.000000 0.866025
v 0.523188 4.000000 0.866025
v -0.500000 0.000000 0.866025
v -0.523188 4.000000 0.866025
v -1.000000 0.000000 0.000000
v -1.000000 4.000000 0.000000
v -0.500000 3.000000 -0.866025
v 0.500000 3.000000 -0.866025
v 1.000000 3.000000 0.000000
v 0.500000 3.000000 0.866025
v -0.500000 3.000000 0.866025
v -1.000000 3.000000 0.000000
v 0.591424 4.000000 -1.024377
v -0.591424 4.000000 -1.024377
v -0.591424 3.000000 -1.024377
v 1.182849 4.000000 0.000000
v 0.225484 3.884208 1.024377
v -0.225484 3.884208 1.024377
v -1.182849 4.000000 0.000000
v 0.591424 3.000000 -1.024377
v 1.182849 3.000000 0.000000
v 0.225484 3.115792 1.024377
v -0.225484 3.115792 1.024377
v -1.182849 3.000000 0.000000
v 0.523188 4.497115 -0.866025
v -0.523188 4.497115 -0.866025
v 1.000000 4.497115 0.000000
v 0.523188 4.497115 0.866025
v -0.523188 4.497115 0.866025
v -1.000000 4.497115 0.000000
v -0.523188 5.378695 -0.672720
v -0.776790 5.378695 0.000000
v -0.267116 5.378695 0.000000
v -0.133558 5.378695 0.231329
v -0.523188 5.378695 0.672720
v 0.133558 5.378695 0.231329
v 0.523188 5.378695 0.672720
v 0.267116 5.378695 0.000000
v 0.776790 5.378695 0.000000
v 0.133558 5.378695 -0.231329
v 0.523188 5.378695 -0.672720
v -0.523188 5.378695 -0.866025
v 0.523188 5.378695 -0.866025
v -0.523188 5.378695 0.866025
v 0.523188 5.378695 0.866025
v -0.133558 5.378695 -0.231329
v -0.523188 5.440853 -0.866025
v -0.523188 5.440853 -0.672720
v 0.523188 5.440853 -0.866025
v -0.523188 5.440853 0.866025
v 0.523188 5.440853 0.866025
v 0.523188 5.440853 -0.672720
v 0.523188 5.440853 0.672720
v -0.523188 5.440853 0.672720
v 0.150899 4.810771 -0.866025
v -0.150899 4.810771 -0.866025
v -0.150899 5.065038 -0.866025
v 0.150899 5.065038 -0.866025
v 0.150899 4.810771 -1.014124
v -0.150899 4.810771 -1.014124
v -0.150899 5.065038 -1.014124
v 0.150899 5.065038 -1.014124
v -0.591425 4.000000 1.024377
v 0.591424 4.000000 1.024377
v 0.591424 3.000000 1.024377
v -0.591425 3.000000 1.024377
v -0.225484 3.884208 1.140524
v 0.225484 3.884208 1.140524
v 0.225484 3.115792 1.140524
v -0.225484 3.115792 1.140524
vt 0.648474 0.700413
vt 0.518710 0.691814
vt 0.522471 0.674631
vt 0.647702 0.683875
vt 0.158437 0.482119
vt 0.288778 0.482456
vt 0.271618 0.556407
vt 0.144565 0.562928
vt 0.398754 0.683874
vt 0.398873 0.666854
vt 0.279004 0.690427
vt 0.275977 0.673880
vt 0.664478 0.770479
vt 0.746986 0.789568
vt 0.901982 0.614143
vt 0.635873 0.881177
vt 0.400658 0.534263
vt 0.549460 0.483131
vt 0.528304 0.558253
vt 0.400124 0.551569
vt 0.777629 0.554498
vt 0.788189 0.574160
vt 0.306138 0.757756
vt 0.398966 0.761388
vt 0.897680 0.795451
vt 0.286955 0.869258
vt 0.289790 0.091434
vt 0.159450 0.091096
vt 0.766755 0.711144
vt 0.147239 0.695759
vt 0.149633 0.754619
vt 0.032694 0.759363
vt 0.029109 0.090759
vt 0.643359 0.759080
vt 0.513331 0.751032
vt 0.680813 0.092446
vt 0.399186 0.739140
vt 0.283429 0.749182
vt 0.550472 0.092109
vt 0.420131 0.091771
vt 0.657088 0.550510
vt 0.148697 0.678568
vt 0.016973 0.684746
vt 0.656232 0.568466
vt 0.428208 0.962087
vt 0.562000 0.664004
vt 0.378115 0.952759
vt 0.419982 0.956298
vt 0.168065 0.851084
vt 0.199628 0.786017
vt 0.680611 0.959610
vt 0.273740 0.848281
vt 0.625620 0.858950
vt 0.515770 0.846754
vt 0.129102 0.765349
vt 0.987309 0.633286
vt 0.491169 0.758985
vt 0.500521 0.868162
vt 0.868757 0.721322
vt 0.899003 0.737375
vt 0.930090 0.722397
vt 0.900659 0.672219
vt 0.869572 0.687196
vt 0.930905 0.688271
vt 0.514735 0.851553
vt 0.504766 0.864935
vt 0.159217 0.870514
vt 0.282532 0.866003
vt 0.167535 0.855982
vt 0.274792 0.852992
vt 0.631851 0.877420
vt 0.625911 0.863680
vt 0.693522 0.900579
vt 0.691978 0.941311
vt 0.759287 0.954869
vt 0.754849 0.882931
vt 0.743482 0.901230
vt 0.741937 0.941962
vt 0.433729 0.877283
vt 0.375106 0.873557
vt 0.425199 0.882884
vt 0.383331 0.879346
vt 0.028097 0.481781
vt 0.679800 0.483469
vt 0.529748 0.540676
vt 0.419119 0.482794
vt 0.271490 0.538769
vt 0.144706 0.545398
vt 0.812353 0.776308
vt 0.813457 0.631584
vt 0.986205 0.778009
vt 0.155460 0.874254
vt 0.802219 0.896208
vt 0.900381 0.903283
vt 0.997443 0.513385
vt 0.899282 0.506310
vt 0.994243 0.893039
vt 0.805419 0.516554
vt 0.046475 0.781534
vt 0.761694 0.767895
vt 0.779873 0.693815
vt 0.029179 0.702521
vt 0.011281 0.564695
vt 0.811153 0.092784
vt 0.022571 0.546113
vt 0.810141 0.483806
vt 0.890294 0.283517
vt 0.890294 0.302677
vt 0.844767 0.328962
vt 0.844767 0.257232
vt 0.906887 0.273937
vt 0.906887 0.312257
vt 0.906887 0.364827
vt 0.906887 0.221368
vt 0.923480 0.283517
vt 0.923480 0.302677
vt 0.969006 0.328962
vt 0.969006 0.257232
vt 0.203310 0.813783
vt 0.235417 0.812969
vt 0.236700 0.784443
vt 0.676173 0.887672
vt 0.615783 0.578658
vt 0.567051 0.574775
vt 0.369584 0.958360
vt 0.609797 0.667537
vn 0.000000 1.000000 0.000000
vn 0.000000 1.000000 0.000000
vn 0.000000 1.000000 0.000000
vn 0.000000 1.000000 0.000000
vn 0.000000 -1.000000 0.000000
vn 0.000000 -1.000000 0.000000
vn 0.000000 -1.000000 0.000000
vn 0.000000 -1.000000 0.000000
vn 0.000000 1.000000 0.000000
vn 0.000000 1.000000 0.000000
vn 0.000000 1.000000 0.000000
vn 0.000000 1.000000 0.000000
vn 0.000000 1.000000 0.000000
vn 0.000000 1.000000 0.000000
vn 0.000000 1.000000 0.000000
vn 0.000000 1.000000 0.000000
vn 0.935732 0.000000 0.352712
vn 0.935732 0.000000 0.352712
vn 0.935732 0.000000 0.352712
vn 0.935732 0.000000 0.352712
vn 0.000000 -1.000000 0.000000
vn 0.000000 -1.000000 0.000000
vn 0.000000 -1.000000 0.000000
vn 0.000000 -1.000000 0.000000
vn 0.000000 -1.000000 0.000000
vn 0.000000 -1.000000 0.000000
vn 0.000000 -1.000000 0.000000
vn 0.000000 -1.000000 0.000000
vn -0.935732 0.000000 -0.352712
vn -0.935732 0.000000 -0.352712
vn -0.935732 0.000000 -0.352712
vn -0.935732 0.000000 -0.352712
vn 0.000000 -1.000000 0.000000
vn 0.000000 -1.000000 0.000000
vn 0.000000 -1.000000 0.000000
vn 0.000000 -1.000000 0.000000
vn 0.876005 0.000000 -0.482303
vn 0.876005 0.000000 -0.482303
vn 0.876005 0.000000 -0.482303
vn 0.876005 0.000000 -0.482303
vn 0.000000 -1.000000 0.000000
vn 0.000000 -1.000000 0.000000
vn 0.000000 -1.000000 0.000000
vn 0.000000 -1.000000 0.000000
vn 0.000000 0.000000 1.000000
vn 0.000000 0.000000 1.000000
vn 0.000000 0.000000 1.000000
vn 0.000000 0.000000 1.000000
vn 0.000000 -1.000000 0.000000
vn 0.000000 -1.000000 0.000000
vn 0.000000 -1.000000 0.000000
vn 0.000000 -1.000000 0.000000
vn -0.876005 0.000000 -0.482303
vn -0.876005 0.000000 -0.482303
vn -0.876005 0.000000 -0.482303
vn -0.876005 0.000000 -0.482303
vn 0.000000 -1.000000 0.000000
vn 0.000000 -1.000000 0.000000
vn 0.000000 -1.000000 0.000000
vn 0.000000 -1.000000 0.000000
vn 0.876005 0.000000 0.482303
vn 0.876005 0.000000 0.482303
vn 0.876005 0.000000 0.482303
vn 0.876005 0.000000 0.482303
vn 0.000000 -1.000000 0.000000
vn 0.000000 -1.000000 0.000000
vn 0.000000 -1.000000 0.000000
vn 0.000000 -1.000000 0.000000
vn 0.000000 0.000000 -1.000000
vn 0.000000 0.000000 -1.000000
vn 0.000000 0.000000 -1.000000
vn 0.000000 0.000000 -1.000000
vn 0.000000 -1.000000 0.000000
vn 0.000000 -1.000000 0.000000
vn 0.000000 -1.000000 0.000000
vn 0.000000 -1.000000 0.000000
vn -0.876005 0.000000 0.482303
vn -0.876005 0.000000 0.482303
vn -0.876005 0.000000 0.482303
vn -0.876005 0.000000 0.482303
vn 0.000000 -1.000000 0.000000
vn 0.000000 -1.000000 0.000000
vn 0.000000 -1.000000 0.000000
vn 0.000000 -1.000000 0.000000
vn 0.000000 -1.000000 0.000000
vn 0.000000 -1.000000 0.000000
vn 0.000000 -1.000000 0.000000
vn 0.000000 -1.000000 0.000000
vn -0.866019 0.000000 -0.500011
vn -0.866019 0.000000 -0.500011
vn -0.866019 0.000000 -0.500011
vn -0.866019 0.000000 -0.500011
vn -0.866019 0.000000 0.500011
vn -0.866019 0.000000 0.500011
vn -0.866019 0.000000 0.500011
vn -0.866019 0.000000 0.500011
vn 0.000000 0.000000 1.000000
vn 0.000000 0.000000 1.000000
vn 0.000000 0.000000 1.000000
vn 0.000000 0.000000 1.000000
vn 0.866019 0.000000 0.500011
vn 0.866019 0.000000 0.500011
vn 0.866019 0.000000 0.500011
vn 0.866019 0.000000 0.500011
vn 0.866019 0.000000 -0.500011
vn 0.866019 0.000000 -0.500011
vn 0.866019 0.000000 -0.500011
vn 0.866019 0.000000 -0.500011
vn 0.000000 0.000000 -1.000000
vn 0.000000 0.000000 -1.000000
vn 0.000000 0.000000 -1.000000
vn 0.000000 0.000000 -1.000000
vn 0.000000 0.000000 -1.000000
vn 0.000000 0.000000 -1.000000
vn 0.000000 0.000000 -1.000000
vn 0.000000 0.000000 -1.000000
vn 0.866019 0.000000 -0.500011
vn 0.866019 0.000000 -0.500011
vn 0.866019 0.000000 -0.500011
vn 0.866019 0.000000 -0.500011
vn 0.866019 0.000000 0.500011
vn 0.866019 0.000000 0.500011
vn 0.866019 0.000000 0.500011
vn 0.866019 0.000000 0.500011
vn 0.000000 1.000000 0.000000
vn 0.000000 1.000000 0.000000
vn 0.000000 1.000000 0.000000
vn 0.000000 1.000000 0.000000
vn -0.866019 0.000000 0.500011
vn -0.866019 0.000000 0.500011
vn -0.866019 0.000000 0.500011
vn -0.866019 0.000000 0.500011
vn -0.866019 0.000000 -0.500011
vn -0.866019 0.000000 -0.500011
vn -0.866019 0.000000 -0.500011
vn -0.866019 0.000000 -0.500011
vn 0.000000 -1.000000 0.000000
vn 0.000000 -1.000000 0.000000
vn 0.000000 -1.000000 0.000000
vn 0.000000 -1.000000 0.000000
vn 0.000000 1.000000 0.000000
vn 0.000000 1.000000 0.000000
vn 0.000000 1.000000 0.000000
vn 0.000000 1.000000 0.000000
vn 0.000000 1.000000 0.000000
vn 0.000000 1.000000 0.000000
vn 0.000000 1.000000 0.000000
vn 0.000000 1.000000 0.000000
vn 0.000000 1.000000 0.000000
vn 0.000000 1.000000 0.000000
vn 0.000000 1.000000 0.000000
vn 0.000000 1.000000 0.000000
vn 0.000000 -1.000000 0.000000
vn 0.000000 -1.000000 0.000000
vn 0.000000 -1.000000 0.000000
vn 0.000000 -1.000000 0.000000
vn 0.000000 -1.000000 0.000000
vn 0.000000 -1.000000 0.000000
vn 0.000000 -1.000000 0.000000
vn 0.000000 -1.000000 0.000000
vn 0.000000 0.000000 -1.000000
vn 0.000000 0.000000 -1.000000
vn 0.000000 0.000000 -1.000000
vn 0.000000 0.000000 -1.000000
vn -1.000000 0.000000 0.000000
vn -1.000000 0.000000 0.000000
vn -1.000000 0.000000 0.000000
vn -1.000000 0.000000 0.000000
vn 0.000000 0.000000 1.000000
vn 0.000000 0.000000 1.000000
vn 0.000000 0.000000 1.000000
vn 0.000000 0.000000 1.000000
vn 0.000000 1.000000 0.000000
vn 0.000000 1.000000 0.000000
vn 0.000000 1.000000 0.000000
vn 0.000000 1.000000 0.000000
vn 0.000000 1.000000 0.000000
vn 0.000000 1.000000 0.000000
vn 0.000000 1.000000 0.000000
vn 0.000000 1.000000 0.000000
vn 1.000000 0.000000 0.000000
vn 1.000000 0.000000 0.000000
vn 1.000000 0.000000 0.000000
vn 1.000000 0.000000 0.000000
vn 0.000000 1.000000 0.000000
vn 0.000000 1.000000 0.000000
vn 0.000000 1.000000 0.000000
vn 0.000000 1.000000 0.000000
vn 0.000000 1.000000 0.000000
vn 0.000000 1.000000 0.000000
vn 0.000000 1.000000 0.000000
vn 0.000000 1.000000 0.000000
vn -1.000000 0.000000 0.000000
vn -1.000000 0.000000 0.000000
vn -1.000000 0.000000 0.000000
vn -1.000000 0.000000 0.000000
vn -0.935732 0.000000 0.352712
vn -0.935732 0.000000 0.352712
vn -0.935732 0.000000 0.352712
vn -0.935732 0.000000 0.352712
vn 0.935732 0.000000 -0.352712
vn 0.935732 0.000000 -0.352712
vn 0.935732 0.000000 -0.352712
vn 0.935732 0.000000 -0.352712
vn 1.000000 0.000000 0.000000
vn 1.000000 0.000000 0.000000
vn 1.000000 0.000000 0.000000
vn 1.000000 0.000000 0.000000
vn 0.000000 1.000000 0.000000
vn 0.000000 1.000000 0.000000
vn 0.000000 1.000000 0.000000
vn 0.000000 1.000000 0.000000
vn 0.000000 1.000000 0.000000
vn 0.000000 1.000000 0.000000
vn 0.000000 1.000000 0.000000
vn 0.000000 1.000000 0.000000
vn 0.000000 1.000000 0.000000
vn 0.000000 1.000000 0.000000
vn 0.000000 1.000000 0.000000
vn 0.000000 1.000000 0.000000
vn 0.000000 1.000000 0.000000
vn 0.000000 1.000000 0.000000
vn 0.000000 1.000000 0.000000
vn 0.000000 1.000000 0.000000
vn -1.000000 0.000000 0.000000
vn -1.000000 0.000000 0.000000
vn -1.000000 0.000000 0.000000
vn -1.000000 0.000000 0.000000
vn 0.000000 0.000000 1.000000
vn 0.000000 0.000000 1.000000
vn 0.000000 0.000000 1.000000
vn 0.000000 0.000000 1.000000
vn 0.000000 1.000000 0.000000
vn 0.000000 1.000000 0.000000
vn 0.000000 1.000000 0.000000
vn 0.000000 1.000000 0.000000
vn 0.000000 1.000000 0.000000
vn 0.000000 1.000000 0.000000
vn 0.000000 1.000000 0.000000
vn 0.000000 1.000000 0.000000
vn 0.000000 1.000000 0.000000
vn 0.000000 1.000000 0.000000
vn 0.000000 1.000000 0.000000
vn 0.000000 1.000000 0.000000
vn 0.000000 1.000000 0.000000
vn 0.000000 1.000000 0.000000
vn 0.000000 1.000000 0.000000
vn 0.000000 1.000000 0.000000
vn 0.000000 1.000000 0.000000
vn 0.000000 1.000000 0.000000
vn 0.000000 1.000000 0.000000
vn 0.000000 1.000000 0.000000
vn 0.000000 1.000000 0.000000
vn 0.000000 1.000000 0.000000
vn 0.000000 1.000000 0.000000
vn 0.000000 1.000000 0.000000
vn 0.000000 0.000000 -1.000000
vn 0.000000 0.000000 -1.000000
vn 0.000000 0.000000 -1.000000
vn 0.000000 0.000000 -1.000000
vn 1.000000 0.000000 0.000000
vn 1.000000 0.000000 0.000000
vn 1.000000 0.000000 0.000000
vn 1.000000 0.000000 0.000000
vn 0.000000 0.000000 -1.000000
vn 0.000000 0.000000 -1.000000
vn 0.000000 0.000000 -1.000000
vn 0.000000 0.000000 -1.000000
vn 0.000000 0.000000 1.000000
vn 0.000000 0.000000 1.000000
vn 0.000000 0.000000 1.000000
vn 0.000000 0.000000 1.000000
vn 1.000000 0.000000 0.000000
vn 1.000000 0.000000 0.000000
vn 1.000000 0.000000 0.000000
vn 1.000000 0.000000 0.000000
vn -1.000000 0.000000 0.000000
vn -1.000000 0.000000 0.000000
vn -1.000000 0.000000 0.000000
vn -1.000000 0.000000 0.000000
vn 1.000000 0.000000 0.000000
vn 1.000000 0.000000 0.000000
vn 1.000000 0.000000 0.000000
vn 1.000000 0.000000 0.000000
vn 0.000000 0.000000 -1.000000
vn 0.000000 0.000000 -1.000000
vn 0.000000 0.000000 -1.000000
vn 0.000000 0.000000 -1.000000
vn 0.000000 0.000000 -1.000000
vn 0.000000 0.000000 -1.000000
vn 0.000000 0.000000 -1.000000
vn 0.000000 0.000000 -1.000000
vn 0.000000 0.000000 -1.000000
vn 0.000000 0.000000 -1.000000
vn 0.000000 0.000000 -1.000000
vn 0.000000 0.000000 -1.000000
vn 0.000000 0.000000 -1.000000
vn 0.000000 0.000000 -1.000000
vn 0.000000 0.000000 -1.000000
vn 0.000000 0.000000 -1.000000
vn 0.000000 -1.000000 0.000000
vn 0.000000 -1.000000 0.000000
vn 0.000000 -1.000000 0.000000
vn 0.000000 -1.000000 0.000000
vn 0.000000 1.000000 0.000000
vn 0.000000 1.000000 0.000000
vn 0.000000 1.000000 0.000000
vn 0.000000 1.000000 0.000000
vn -1.000000 0.000000 0.000000
vn -1.000000 0.000000 0.000000
vn -1.000000 0.000000 0.000000
vn -1.000000 0.000000 0.000000
vn 0.000000 0.000000 1.000000
vn 0.000000 0.000000 1.000000
vn 0.000000 0.000000 1.000000
vn 0.000000 0.000000 1.000000
vn 0.000000 0.000000 1.000000
vn 0.000000 0.000000 1.000000
vn 0.000000 0.000000 1.000000
vn 0.000000 0.000000 1.000000
vn 0.000000 0.000000 1.000000
vn 0.000000 0.000000 1.000000
vn 0.000000 0.000000 1.000000
vn 0.000000 0.000000 1.000000
vn 0.000000 0.000000 1.000000
vn 0.000000 0.000000 1.000000
vn 0.000000 0.000000 1.000000
vn 0.000000 0.000000 1.000000
vn 0.000000 0.000000 1.000000
vn 0.000000 0.000000 1.000000
vn 0.000000 0.000000 1.000000
vn 0.000000 0.000000 1.000000
vn 0.000000 -1.000000 0.000000
vn 0.000000 -1.000000 0.000000
vn 0.000000 -1.000000 0.000000
vn 0.000000 -1.000000 0.000000
vn 1.000000 0.000000 0.000000
vn 1.000000 0.000000 0.000000
vn 1.000000 0.000000 0.000000
vn 1.000000 0.000000 0.000000
vn -1.000000 0.000000 0.000000
vn -1.000000 0.000000 0.000000
vn -1.000000 0.000000 0.000000
vn -1.000000 0.000000 0.000000
s off
g sm_pepperspray:Mesh
usemtl sm_pepperspray:None
f 20/1/1 22/2/2 81/3/3 82/4/4
f 26/88/5 25/87/6 33/7/7 38/8/8
f 22/2/9 24/9/10 37/10/11 81/3/12
f 24/9/13 16/11/14 32/12/15 37/10/16
f 6/98/17 8/96/18 57/15/19 55/90/20
f 30/17/21 29/85/22 84/19/23 42/20/24
f 27/105/25 26/88/26 38/8/27 39/103/28
f 12/97/29 2/94/30 50/25/31 49/91/32
f 3/107/33 1/108/34 13/109/35 14/110/36
f 18/102/37 15/30/38 43/31/39 45/32/40
f 5/111/41 3/107/42 14/110/43 17/114/44
f 22/2/45 20/1/46 46/34/47 47/35/48
f 7/115/49 5/111/50 17/114/51 19/118/52
f 16/11/53 24/9/54 48/37/55 44/38/56
f 9/116/57 7/115/58 19/118/59 21/117/60
f 20/1/61 18/29/62 45/100/63 46/34/64
f 11/112/65 9/116/66 21/117/67 23/113/68
f 15/30/69 16/11/70 44/38/71 43/31/72
f 1/108/73 11/112/74 23/113/75 13/109/76
f 24/9/77 22/2/78 47/35/79 48/37/80
f 1/108/81 3/107/82 5/111/83 11/112/84
f 11/112/85 5/111/86 7/115/87 9/116/88
f 23/40/89 30/86/90 25/6/91 13/27/92
f 21/39/93 29/18/94 30/86/95 23/40/96
f 19/36/97 28/84/98 29/18/99 21/39/100
f 17/104/101 27/106/102 28/84/103 19/36/104
f 14/28/105 26/5/106 27/83/107 17/33/108
f 13/27/109 25/6/110 26/5/111 14/28/112
f 33/7/113 32/12/114 31/42/115 38/8/116
f 38/8/117 31/42/118 34/43/119 39/103/120
f 39/22/121 34/101/122 82/4/123 83/44/124
f 35/45/125 36/125/126 85/47/127 86/48/128
f 84/19/129 81/3/130 37/10/131 42/20/132
f 42/20/133 37/10/134 32/12/135 33/7/136
f 29/85/137 28/41/138 83/44/139 84/19/140
f 16/11/141 15/30/142 31/42/143 32/12/144
f 18/29/145 20/1/146 82/4/147 34/101/148
f 15/30/149 18/102/150 34/43/151 31/42/152
f 28/41/153 27/21/154 39/22/155 83/44/156
f 25/87/157 30/17/158 42/20/159 33/7/160
f 61/49/161 43/31/162 73/50/163 76/119/164
f 44/38/165 12/23/166 49/26/167 60/52/168
f 47/35/169 46/34/170 63/53/171 62/54/172
f 10/55/173 8/99/174 45/32/175 43/31/176
f 8/14/177 6/13/178 46/34/179 45/100/180
f 10/55/181 43/31/182 61/49/183 59/92/184
f 4/57/185 2/24/186 48/37/187 47/35/188
f 2/24/189 12/23/190 44/38/191 48/37/192
f 4/57/193 47/35/194 62/54/195 53/58/196
f 2/94/197 4/93/198 53/89/199 50/25/200
f 8/96/201 10/95/202 59/56/203 57/15/204
f 46/34/205 6/13/206 55/16/207 63/53/208
f 52/59/209 51/60/210 50/25/211 53/89/212
f 51/60/213 64/61/214 49/91/215 50/25/216
f 56/62/217 51/60/218 52/59/219 54/63/220
f 58/64/221 64/61/222 51/60/223 56/62/224
f 53/58/225 62/54/226 68/65/227 72/66/228
f 49/26/229 59/92/230 70/67/231 66/68/232
f 54/63/233 52/59/234 53/89/235 55/90/236
f 56/62/237 54/63/238 55/90/239 57/15/240
f 58/64/241 56/62/242 57/15/243 59/56/244
f 64/61/245 58/64/246 59/56/247 49/91/248
f 66/68/249 70/67/250 67/69/251 65/70/252
f 71/71/253 72/66/254 68/65/255 69/72/256
f 61/49/257 60/52/258 65/70/259 67/69/260
f 59/92/261 61/49/262 67/69/263 70/67/264
f 55/16/265 53/58/266 72/66/267 71/71/268
f 62/54/269 63/53/270 69/72/271 68/65/272
f 63/53/273 55/16/274 71/71/275 69/72/276
f 60/52/277 49/26/278 66/68/279 65/70/280
f 76/51/281 73/122/282 77/73/283 80/74/284
f 44/38/285 60/52/286 75/120/287 74/121/288
f 43/31/289 44/38/290 74/121/291 73/50/292
f 60/52/293 61/49/294 76/119/295 75/120/296
f 77/73/297 78/77/298 79/78/299 80/74/300
f 73/122/301 74/76/302 78/77/303 77/73/304
f 75/75/305 76/51/306 80/74/307 79/78/308
f 74/76/309 75/75/310 79/78/311 78/77/312
f 36/46/313 35/126/314 82/4/315 81/3/316
f 35/126/317 40/123/318 83/44/319 82/4/320
f 41/124/321 36/46/322 81/3/323 84/19/324
f 40/123/325 41/124/326 84/19/327 83/44/328
f 87/81/329 86/48/330 85/47/331 88/82/332
f 41/80/333 40/79/334 87/81/335 88/82/336
f 40/79/337 35/45/338 86/48/339 87/81/340
f 36/125/341 41/80/342 88/82/343 85/47/344
