# Blender v3.2.1 OBJ File: 'SM_StoreFront.blend'
# www.blender.org
mtllib SM_StoreFront.mtl
v 1.605347 3.069490 -1.505347
v 1.605347 0.000000 -1.605347
v 1.605347 3.069490 1.505347
v 1.605347 0.068048 1.673395
v -1.605347 2.969490 -1.605347
v -1.605347 0.000000 -1.605347
v -1.605347 2.969490 1.605347
v -1.605347 0.000000 1.605347
v 1.605347 2.782297 -1.605347
v 1.605347 2.612192 -1.605347
v 1.605347 1.187796 -1.605347
v 1.605347 0.593898 -1.605347
v -1.605347 0.593898 1.605347
v -1.605347 1.187796 1.605347
v -1.605347 2.612192 1.605347
v -1.605347 2.782297 1.605347
v 1.605347 2.782297 1.605347
v 1.605347 2.544144 1.673395
v 1.605347 1.187796 1.673395
v 1.605347 0.593898 1.673395
v -1.605347 2.782297 -1.605347
v -1.605347 2.612192 -1.605347
v -1.605347 1.187796 -1.605347
v -1.605347 0.593898 -1.605347
v 2.512451 2.624780 -1.605347
v 2.512451 2.454675 -1.605347
v 2.512451 2.624780 1.605347
v 2.512451 2.454675 1.605347
v -1.605347 2.782297 3.053289
v -1.605347 2.969490 3.053289
v 1.605347 0.593898 2.985241
v 1.605347 0.068048 2.985241
v 1.605347 3.069490 2.953290
v -1.605347 0.000000 3.053289
v -1.605347 0.593898 3.053289
v -1.605347 1.187796 3.053289
v -1.605347 2.612192 3.053289
v 1.605347 2.782297 3.053289
v 1.605347 2.544144 2.985241
v 1.605347 1.187796 2.985241
v 1.605347 4.750396 1.505347
v -1.605347 4.850396 1.605347
v 1.605347 4.750396 -1.505347
v -1.605347 4.850396 -1.605347
v 1.605347 4.750396 2.953290
v -1.605347 4.850396 3.053289
v 1.605347 0.000000 -1.705153
v -1.605347 0.000000 -1.705153
v 1.605347 0.593898 -1.705153
v -1.605347 0.593898 -1.705153
v -1.605347 2.969490 -1.705153
v 1.605347 2.969490 -1.705153
v 1.605347 2.782297 -1.705153
v 1.605347 2.612192 -1.705153
v 1.605347 1.187796 -1.705153
v -1.605347 2.782297 -1.705153
v -1.605347 2.612192 -1.705153
v -1.605347 1.187796 -1.705153
v -1.605347 4.850396 -1.705153
v 1.605347 4.850396 -1.705153
v 1.485299 2.612192 -1.605347
v 1.485299 1.187796 -1.605347
v 1.485299 2.612192 1.605347
v 1.485299 1.187796 1.605347
v -1.605347 0.000000 0.000000
v 1.605347 3.069490 -0.100000
v -1.605347 2.969490 0.000000
v 1.605347 0.000000 0.000000
v 1.605347 0.593898 0.000000
v 1.605347 1.187796 0.000000
v 1.605347 2.612192 0.000000
v 1.605347 2.782297 0.000000
v -1.605347 0.593898 0.000000
v -1.605347 1.187796 0.000000
v -1.605347 2.612192 0.000000
v -1.605347 2.782297 0.000000
v 2.512451 2.454675 0.000000
v 2.512451 2.624780 0.000000
v 1.605347 4.750396 -0.100000
v -1.605347 4.850396 0.000000
v 1.485299 1.187796 0.000000
v 1.485299 2.612192 0.000000
v 1.605347 2.969490 -1.605347
v 1.605347 4.850396 -1.605347
v 1.605347 3.069490 0.100000
v 1.605347 4.750396 0.100000
v 1.605347 2.969490 0.000000
v 1.605347 3.069490 1.705347
v 1.605347 4.850396 0.000000
v 1.605347 4.750396 1.705347
v 1.567558 3.069490 -1.505347
v 1.567558 4.750396 -1.505347
v 1.567558 3.069490 -0.100000
v 1.567558 4.750396 -0.100000
v 1.567558 3.069490 0.100000
v 1.567558 3.069490 1.505347
v 1.567558 4.750396 0.100000
v 1.567558 4.750396 1.505347
v 1.605347 0.593898 1.605347
v 1.605347 0.000000 1.605347
v 1.605347 2.612192 1.605347
v 1.605347 1.187796 1.605347
v 1.605347 0.593898 3.053289
v 1.605347 0.000000 3.053289
v 1.605347 2.612192 3.053289
v 1.605347 1.187796 3.053289
v 1.573482 1.187796 1.673395
v 1.573482 1.187796 2.985241
v 1.573482 0.593898 2.985241
v 1.573482 0.593898 1.673395
v 1.573482 0.068048 1.673395
v 1.573482 2.544144 1.673395
v 1.573482 0.068048 2.985241
v 1.573482 2.544144 2.985241
v 1.605347 2.969490 3.053289
v 1.605347 2.969490 1.605347
v 1.605347 4.850396 3.053289
v 1.605347 4.850396 1.605347
v 1.569014 3.069490 2.953290
v 1.569014 3.069490 1.705347
v 1.569014 4.750396 2.953290
v 1.569014 4.750396 1.705347
vt 0.625000 0.507786
vt 0.625000 0.507786
vt 0.625000 0.507786
vt 0.625000 0.507786
vt 0.625000 0.000000
vt 0.575000 0.000000
vt 0.575000 0.000000
vt 0.625000 0.000000
vt 0.575000 0.125000
vt 0.625000 0.125000
vt 0.625000 0.250000
vt 0.575000 0.250000
vt 0.125000 0.625000
vt 0.375000 0.625000
vt 0.375000 0.750000
vt 0.125000 0.750000
vt 0.575000 0.625000
vt 0.625000 0.625000
vt 0.625000 0.750000
vt 0.575000 0.750000
vt 0.625000 0.500000
vt 0.575000 0.500000
vt 0.575000 0.500000
vt 0.625000 0.500000
vt 0.475000 0.250000
vt 0.525000 0.250000
vt 0.525000 0.250000
vt 0.475000 0.250000
vt 0.575000 0.250000
vt 0.625000 0.500000
vt 0.625000 0.500000
vt 0.425000 0.500000
vt 0.375000 0.500000
vt 0.375000 0.500000
vt 0.425000 0.500000
vt 0.425000 0.625000
vt 0.425000 0.750000
vt 0.475000 0.625000
vt 0.475000 0.750000
vt 0.525000 0.750000
vt 0.475000 0.750000
vt 0.525000 0.750000
vt 0.525000 0.500000
vt 0.575000 0.500000
vt 0.525000 0.500000
vt 0.375000 0.125000
vt 0.425000 0.125000
vt 0.425000 0.250000
vt 0.375000 0.250000
vt 0.475000 0.125000
vt 0.525000 0.125000
vt 0.625000 0.000000
vt 0.625000 0.125000
vt 0.425000 0.750000
vt 0.475000 0.750000
vt 0.475000 0.750000
vt 0.425000 0.750000
vt 0.425000 0.000000
vt 0.375000 0.000000
vt 0.375000 0.000000
vt 0.425000 0.000000
vt 0.525000 0.000000
vt 0.525000 0.000000
vt 0.525000 0.625000
vt 0.575000 0.625000
vt 0.575000 0.750000
vt 0.525000 0.750000
vt 0.525000 0.625000
vt 0.575000 0.750000
vt 0.625000 0.750000
vt 0.625000 1.000000
vt 0.575000 1.000000
vt 0.375000 0.750000
vt 0.425000 0.750000
vt 0.425000 1.000000
vt 0.375000 1.000000
vt 0.475000 0.750000
vt 0.475000 1.000000
vt 0.525000 0.750000
vt 0.525000 1.000000
vt 0.475000 0.000000
vt 0.475000 0.000000
vt 0.522611 0.750000
vt 0.475000 0.750000
vt 0.475000 0.750000
vt 0.522611 0.750000
vt 0.125000 0.750000
vt 0.522611 0.750000
vt 0.522611 0.750000
vt 0.625000 0.625000
vt 0.875000 0.625000
vt 0.875000 0.750000
vt 0.625000 0.750000
vt 0.875000 0.750000
vt 0.625000 0.750000
vt 0.625000 0.750000
vt 0.625000 0.750000
vt 0.625000 0.750000
vt 0.625000 0.750000
vt 0.625000 0.250000
vt 0.625000 1.000000
vt 0.625000 0.000000
vt 0.375000 0.250000
vt 0.425000 0.250000
vt 0.475000 0.500000
vt 0.525000 0.500000
vt 0.625000 0.250000
vt 0.875000 0.500000
vt 0.875000 0.500000
vt 0.475000 0.500000
vt 0.125000 0.500000
vt 0.125000 0.500000
vt 0.625000 0.250000
vt 0.475000 0.625000
vt 0.525000 0.625000
vt 0.475000 0.500000
vt 0.525000 0.500000
vt 0.625000 0.632787
vt 0.625000 0.632787
vt 0.625000 0.632787
vt 0.625000 0.632787
vt 0.625000 0.617214
vt 0.625000 0.617213
vt 0.625000 0.742214
vt 0.625000 0.742213
vt 0.625000 0.617214
vt 0.625000 0.617213
vt 0.625000 0.742214
vt 0.625000 0.742213
vt 0.380729 0.750000
vt 0.380729 0.750000
vt 0.425000 0.750000
vt 0.425000 0.750000
vt 0.380729 0.750000
vt 0.380729 0.750000
vt 0.625000 0.750000
vt 0.625000 0.750000
vt 0.625000 0.750000
vt 0.625000 0.750000
vn 0.0000 0.0000 1.0000
vn -1.0000 0.0000 0.0000
vn 0.0000 -1.0000 0.0000
vn 1.0000 0.0000 0.0000
vn 0.0000 0.0000 -1.0000
vn 0.1711 0.9853 0.0000
vn -0.1711 -0.9853 0.0000
vn 0.0000 1.0000 0.0000
usemtl Material
s off
f 1/1/1 43/2/1 92/3/1 91/4/1
f 7/5/2 16/6/2 29/7/2 30/8/2
f 76/9/2 67/10/2 5/11/2 21/12/2
f 65/13/3 68/14/3 100/15/3 8/16/3
f 72/17/4 87/18/4 116/19/4 17/20/4
f 83/21/4 9/22/4 53/23/4 52/24/4
f 23/25/2 22/26/2 57/27/2 58/28/2
f 22/26/2 21/12/2 56/29/2 57/27/2
f 84/30/4 83/21/4 52/24/4 60/31/4
f 12/32/4 2/33/4 47/34/4 49/35/4
f 68/14/4 69/36/4 99/37/4 100/15/4
f 69/36/4 70/38/4 102/39/4 99/37/4
f 101/40/5 102/39/5 64/41/5 63/42/5
f 10/43/5 9/22/5 25/44/5 26/45/5
f 65/46/2 73/47/2 24/48/2 6/49/2
f 73/47/2 74/50/2 23/25/2 24/48/2
f 74/50/2 75/51/2 22/26/2 23/25/2
f 75/51/2 76/9/2 21/12/2 22/26/2
f 67/10/2 7/5/2 42/52/2 80/53/2
f 20/54/1 19/55/1 107/56/1 110/57/1
f 13/58/2 8/59/2 34/60/2 35/61/2
f 16/6/2 15/62/2 37/63/2 29/7/2
f 77/64/4 78/65/4 27/66/4 28/67/4
f 72/17/6 17/20/6 27/66/6 78/65/6
f 71/68/7 10/43/7 26/45/7 77/64/7
f 17/20/1 101/40/1 28/67/1 27/66/1
f 38/69/1 115/70/1 30/71/1 29/72/1
f 104/73/1 103/74/1 35/75/1 34/76/1
f 103/74/1 106/77/1 36/78/1 35/75/1
f 106/77/1 105/79/1 37/80/1 36/78/1
f 105/79/1 38/69/1 29/72/1 37/80/1
f 17/20/4 116/19/4 115/70/4 38/69/4
f 14/81/2 13/58/2 35/61/2 36/82/2
f 101/40/4 17/20/4 38/69/4 105/79/4
f 39/83/5 40/84/5 108/85/5 114/86/5
f 15/62/2 14/81/2 36/82/2 37/63/2
f 8/16/3 100/15/3 104/73/3 34/87/3
f 18/88/3 39/83/3 114/86/3 112/89/3
f 89/90/8 80/91/8 42/92/8 118/93/8
f 118/93/8 42/92/8 46/94/8 117/95/8
f 45/96/5 33/97/5 119/98/5 121/99/5
f 21/12/2 5/11/2 51/100/2 56/29/2
f 30/71/1 115/70/1 117/95/1 46/101/1
f 7/5/2 30/8/2 46/102/2 42/52/2
f 56/29/5 51/100/5 52/24/5 53/23/5
f 48/103/5 50/104/5 49/35/5 47/34/5
f 50/104/5 58/28/5 55/105/5 49/35/5
f 58/28/5 57/27/5 54/106/5 55/105/5
f 57/27/5 56/29/5 53/23/5 54/106/5
f 52/24/5 51/100/5 59/107/5 60/31/5
f 24/48/2 23/25/2 58/28/2 50/104/2
f 6/49/2 24/48/2 50/104/2 48/103/2
f 44/108/8 84/30/8 60/31/8 59/109/8
f 9/22/4 10/43/4 54/106/4 53/23/4
f 10/43/4 11/110/4 55/105/4 54/106/4
f 11/110/4 12/32/4 49/35/4 55/105/4
f 2/33/3 6/111/3 48/112/3 47/34/3
f 5/11/2 44/113/2 59/107/2 51/100/2
f 81/114/4 82/115/4 63/42/4 64/41/4
f 70/38/8 11/110/8 62/116/8 81/114/8
f 11/110/1 10/43/1 61/117/1 62/116/1
f 71/68/3 101/40/3 63/42/3 82/115/3
f 10/43/3 71/68/3 82/115/3 61/117/3
f 102/39/8 70/38/8 81/114/8 64/41/8
f 62/116/4 61/117/4 82/115/4 81/114/4
f 84/30/8 44/108/8 80/91/8 89/90/8
f 101/40/7 71/68/7 77/64/7 28/67/7
f 9/22/6 72/17/6 78/65/6 25/44/6
f 26/45/4 25/44/4 78/65/4 77/64/4
f 5/11/2 67/10/2 80/53/2 44/113/2
f 15/62/2 16/6/2 76/9/2 75/51/2
f 14/81/2 15/62/2 75/51/2 74/50/2
f 13/58/2 14/81/2 74/50/2 73/47/2
f 8/59/2 13/58/2 73/47/2 65/46/2
f 12/32/4 11/110/4 70/38/4 69/36/4
f 2/33/4 12/32/4 69/36/4 68/14/4
f 9/22/4 83/21/4 87/18/4 72/17/4
f 6/111/3 2/33/3 68/14/3 65/13/3
f 16/6/2 7/5/2 67/10/2 76/9/2
f 85/118/1 86/119/1 97/120/1 95/121/1
f 43/2/4 1/1/4 83/21/4 84/30/4
f 1/1/4 66/122/4 87/18/4 83/21/4
f 79/123/4 43/2/4 84/30/4 89/90/4
f 66/122/4 79/123/4 89/90/4 87/18/4
f 85/118/4 3/124/4 116/19/4 87/18/4
f 41/125/4 86/119/4 89/90/4 118/93/4
f 3/124/4 41/125/4 118/93/4 116/19/4
f 86/119/4 85/118/4 87/18/4 89/90/4
f 93/126/4 91/4/4 92/3/4 94/127/4
f 96/128/4 95/121/4 97/120/4 98/129/4
f 86/119/3 41/125/3 98/129/3 97/120/3
f 79/123/5 66/122/5 93/126/5 94/127/5
f 66/122/8 1/1/8 91/4/8 93/126/8
f 41/125/5 3/124/5 96/128/5 98/129/5
f 3/124/8 85/118/8 95/121/8 96/128/8
f 43/2/3 79/123/3 94/127/3 92/3/3
f 20/54/4 4/130/4 100/15/4 99/37/4
f 18/88/4 19/55/4 102/39/4 101/40/4
f 19/55/4 20/54/4 99/37/4 102/39/4
f 32/131/4 31/132/4 103/74/4 104/73/4
f 40/84/4 39/83/4 105/79/4 106/77/4
f 31/132/4 40/84/4 106/77/4 103/74/4
f 39/83/4 18/88/4 101/40/4 105/79/4
f 4/130/4 32/131/4 104/73/4 100/15/4
f 110/57/4 107/56/4 108/85/4 109/133/4
f 111/134/4 110/57/4 109/133/4 113/135/4
f 107/56/4 112/89/4 114/86/4 108/85/4
f 4/130/1 20/54/1 110/57/1 111/134/1
f 32/131/8 4/130/8 111/134/8 113/135/8
f 40/84/5 31/132/5 109/133/5 108/85/5
f 31/132/5 32/131/5 113/135/5 109/133/5
f 19/55/1 18/88/1 112/89/1 107/56/1
f 88/136/4 33/97/4 115/70/4 116/19/4
f 45/96/4 90/137/4 118/93/4 117/95/4
f 90/137/4 88/136/4 116/19/4 118/93/4
f 33/97/4 45/96/4 117/95/4 115/70/4
f 119/98/4 120/138/4 122/139/4 121/99/4
f 90/137/3 45/96/3 121/99/3 122/139/3
f 88/136/1 90/137/1 122/139/1 120/138/1
f 33/97/8 88/136/8 120/138/8 119/98/8
