# Blender v3.2.1 OBJ File: 'SM_StoreFront.blend'
# www.blender.org
mtllib SM_StoreFront.mtl
v 1.605347 3.069490 3.910214
v 1.605347 0.000000 3.810214
v 1.605347 3.069490 6.920908
v 1.605347 0.068048 7.088956
v -1.605347 3.069490 3.910214
v -1.605347 0.000000 3.810214
v -1.605347 3.069490 6.920908
v -1.605347 0.000000 7.020908
v 1.605347 2.782297 3.810214
v 1.605347 2.612192 3.810214
v 1.605347 1.187796 3.810214
v 1.605347 0.593898 3.810214
v -1.605347 0.593898 7.020908
v -1.605347 1.138888 6.920908
v -1.605347 2.512192 6.920908
v -1.605347 2.782297 7.020908
v 1.605347 2.782297 7.020908
v 1.605347 2.544144 7.088956
v 1.605347 1.187796 7.088956
v 1.605347 0.593898 7.088956
v -1.605347 2.782297 3.810214
v -1.605347 2.512192 3.910214
v -1.605347 1.138888 3.910214
v -1.605347 0.593898 3.810214
v 2.512451 2.624780 3.810214
v 2.512451 2.454675 3.810214
v 2.512451 2.624780 7.020908
v 2.512451 2.454675 7.020908
v -1.605347 2.782297 8.468851
v -1.605347 2.969490 8.468851
v 1.605347 0.593898 8.400803
v 1.605347 0.068048 8.400803
v 1.605347 3.069490 8.368851
v -1.605347 0.000000 8.468851
v -1.605347 0.593898 8.468851
v -1.605347 1.287796 8.368851
v -1.605347 2.512192 8.368851
v 1.605347 2.782297 8.468851
v 1.605347 2.544144 8.400803
v 1.605347 1.187796 8.400803
v 1.605347 4.750396 6.920908
v -1.605347 4.750396 6.920908
v 1.605347 4.750396 3.910214
v -1.605347 4.750396 3.910214
v 1.605347 4.750396 8.368851
v -1.605347 4.850396 8.468851
v 1.605347 0.000000 3.710408
v -1.605347 0.000000 3.710408
v 1.605347 0.593898 3.710408
v -1.605347 0.593898 3.710408
v -1.605347 2.969490 3.710408
v 1.605347 2.969490 3.710408
v 1.605347 2.782297 3.710408
v 1.605347 2.612192 3.710408
v 1.605347 1.187796 3.710408
v -1.605347 2.782297 3.710408
v -1.605347 2.612192 3.710408
v -1.605347 1.187796 3.710408
v -1.605347 4.850396 3.710408
v 1.605347 4.850396 3.710408
v 1.485299 2.612192 3.810214
v 1.485299 1.187796 3.810214
v 1.485299 2.612192 7.020908
v 1.485299 1.187796 7.020908
v -1.605347 0.000000 5.415561
v 1.605347 3.069490 5.315561
v -1.605347 3.069490 5.315561
v 1.605347 0.000000 5.415561
v 1.605347 0.593898 5.415561
v 1.605347 1.187796 5.415561
v 1.605347 2.612192 5.415561
v 1.605347 2.782297 5.415561
v -1.605347 0.593898 5.415561
v -1.605347 1.138888 5.315561
v -1.605347 2.512192 5.315561
v -1.605347 2.782297 5.415561
v 2.512451 2.454675 5.415561
v 2.512451 2.624780 5.415561
v 1.605347 4.750396 5.315561
v -1.605347 4.750396 5.315561
v 1.485299 1.187796 5.415561
v 1.485299 2.612192 5.415561
v 1.605347 2.969490 3.810214
v 1.605347 4.850396 3.810214
v 1.605347 3.069490 5.515561
v 1.605347 4.750396 5.515561
v 1.605347 2.969490 5.415561
v 1.605347 3.069490 7.120909
v 1.605347 4.850396 5.415561
v 1.605347 4.750396 7.120909
v 1.567558 3.069490 3.910214
v 1.567558 4.750396 3.910214
v 1.567558 3.069490 5.315561
v 1.567558 4.750396 5.315561
v 1.567558 3.069490 5.515561
v 1.567558 3.069490 6.920908
v 1.567558 4.750396 5.515561
v 1.567558 4.750396 6.920908
v 1.605347 0.593898 7.020908
v 1.605347 0.000000 7.020908
v 1.605347 2.612192 7.020908
v 1.605347 1.187796 7.020908
v 1.605347 0.593898 8.468851
v 1.605347 0.000000 8.468851
v 1.605347 2.612192 8.468851
v 1.605347 1.187796 8.468851
v 1.573482 1.187796 7.088956
v 1.573482 1.187796 8.400803
v 1.573482 0.593898 8.400803
v 1.573482 0.593898 7.088956
v 1.573482 0.068048 7.088956
v 1.573482 2.544144 7.088956
v 1.573482 0.068048 8.400803
v 1.573482 2.544144 8.400803
v 1.605347 2.969490 8.468851
v 1.605347 2.969490 7.020908
v 1.605347 4.850396 8.468851
v 1.605347 4.850396 7.020908
v 1.569014 3.069490 8.368851
v 1.569014 3.069490 7.120909
v 1.569014 4.750396 8.368851
v 1.569014 4.750396 7.120909
v -1.605347 2.612192 3.810214
v -1.605347 1.038888 3.810214
v -1.605347 1.138888 5.515561
v -1.605347 2.512192 5.515561
v -1.605347 1.287796 7.120909
v -1.605347 2.512192 7.120909
v -1.605347 1.038888 5.415561
v -1.605347 2.612192 5.415561
v -1.605347 1.038888 7.020908
v -1.605347 2.612192 7.020908
v -1.605347 2.612192 8.468851
v -1.605347 1.187796 8.468851
v -1.605347 3.069490 5.515561
v -1.605347 2.969490 3.810214
v -1.605347 4.750396 5.515561
v -1.605347 4.850396 3.810214
v -1.605347 2.969490 7.020908
v -1.605347 4.850396 7.020908
v -1.605347 2.969490 5.415561
v -1.605347 4.850396 5.415561
v -1.491717 2.512192 3.910214
v -1.491717 1.138888 3.910214
v -1.491717 1.138888 5.315561
v -1.491717 2.512192 5.315561
v -1.491717 1.138888 6.920908
v -1.491717 2.512192 6.920908
v -1.491717 1.138888 5.515561
v -1.491717 2.512192 5.515561
v -1.491717 3.069490 5.315561
v -1.491717 3.069490 3.910214
v -1.491717 4.750396 5.315561
v -1.491717 4.750396 3.910214
v -1.491717 3.069490 6.920908
v -1.491717 4.750396 6.920908
v -1.491717 3.069490 5.515561
v -1.491717 4.750396 5.515561
vt 0.625000 0.507786
vt 0.625000 0.507786
vt 0.625000 0.507786
vt 0.625000 0.507786
vt 0.625000 0.000000
vt 0.575000 0.000000
vt 0.575000 0.000000
vt 0.625000 0.000000
vt 0.575000 0.125000
vt 0.625000 0.125000
vt 0.625000 0.250000
vt 0.575000 0.250000
vt 0.125000 0.625000
vt 0.375000 0.625000
vt 0.375000 0.750000
vt 0.125000 0.750000
vt 0.575000 0.625000
vt 0.625000 0.625000
vt 0.625000 0.750000
vt 0.575000 0.750000
vt 0.625000 0.500000
vt 0.575000 0.500000
vt 0.575000 0.500000
vt 0.625000 0.500000
vt 0.475000 0.250000
vt 0.525000 0.250000
vt 0.525000 0.250000
vt 0.475000 0.250000
vt 0.575000 0.250000
vt 0.625000 0.500000
vt 0.625000 0.500000
vt 0.425000 0.500000
vt 0.375000 0.500000
vt 0.375000 0.500000
vt 0.425000 0.500000
vt 0.425000 0.625000
vt 0.425000 0.750000
vt 0.475000 0.625000
vt 0.475000 0.750000
vt 0.525000 0.750000
vt 0.475000 0.750000
vt 0.525000 0.750000
vt 0.525000 0.500000
vt 0.575000 0.500000
vt 0.525000 0.500000
vt 0.375000 0.125000
vt 0.425000 0.125000
vt 0.425000 0.250000
vt 0.375000 0.250000
vt 0.475000 0.125000
vt 0.625000 0.117214
vt 0.625000 0.007786
vt 0.625000 0.007786
vt 0.625000 0.117214
vt 0.525000 0.125000
vt 0.478510 0.132786
vt 0.521490 0.132786
vt 0.521490 0.132786
vt 0.478510 0.132786
vt 0.425000 0.750000
vt 0.475000 0.750000
vt 0.475000 0.750000
vt 0.425000 0.750000
vt 0.425000 0.000000
vt 0.375000 0.000000
vt 0.375000 0.000000
vt 0.425000 0.000000
vt 0.525000 0.000000
vt 0.525000 0.000000
vt 0.525000 0.625000
vt 0.575000 0.625000
vt 0.575000 0.750000
vt 0.525000 0.750000
vt 0.525000 0.625000
vt 0.575000 0.750000
vt 0.625000 0.750000
vt 0.625000 1.000000
vt 0.575000 1.000000
vt 0.375000 0.750000
vt 0.425000 0.750000
vt 0.425000 1.000000
vt 0.375000 1.000000
vt 0.475000 0.750000
vt 0.475000 1.000000
vt 0.525000 0.750000
vt 0.525000 1.000000
vt 0.475000 0.000000
vt 0.475000 0.000000
vt 0.522611 0.750000
vt 0.475000 0.750000
vt 0.475000 0.750000
vt 0.522611 0.750000
vt 0.521490 0.000000
vt 0.478510 0.000000
vt 0.478510 0.000000
vt 0.521490 0.000000
vt 0.125000 0.750000
vt 0.522611 0.750000
vt 0.522611 0.750000
vt 0.625000 0.625000
vt 0.875000 0.625000
vt 0.875000 0.750000
vt 0.625000 0.750000
vt 0.875000 0.750000
vt 0.625000 0.750000
vt 0.625000 0.750000
vt 0.625000 0.750000
vt 0.625000 0.750000
vt 0.625000 0.750000
vt 0.625000 0.250000
vt 0.625000 1.000000
vt 0.625000 0.000000
vt 0.625000 0.000000
vt 0.375000 0.250000
vt 0.425000 0.250000
vt 0.475000 0.500000
vt 0.525000 0.500000
vt 0.625000 0.250000
vt 0.875000 0.500000
vt 0.875000 0.500000
vt 0.475000 0.500000
vt 0.125000 0.500000
vt 0.125000 0.500000
vt 0.625000 0.250000
vt 0.475000 0.625000
vt 0.525000 0.625000
vt 0.475000 0.500000
vt 0.525000 0.500000
vt 0.625000 0.132786
vt 0.625000 0.242214
vt 0.625000 0.242214
vt 0.625000 0.132786
vt 0.521490 0.007786
vt 0.521490 0.117214
vt 0.521490 0.117214
vt 0.521490 0.007786
vt 0.625000 0.632787
vt 0.625000 0.632787
vt 0.625000 0.632787
vt 0.625000 0.632787
vt 0.625000 0.617214
vt 0.625000 0.617213
vt 0.625000 0.742214
vt 0.625000 0.742213
vt 0.625000 0.617214
vt 0.625000 0.617213
vt 0.625000 0.742214
vt 0.625000 0.742213
vt 0.380729 0.750000
vt 0.380729 0.750000
vt 0.425000 0.750000
vt 0.425000 0.750000
vt 0.380729 0.750000
vt 0.380729 0.750000
vt 0.625000 0.750000
vt 0.625000 0.750000
vt 0.625000 0.750000
vt 0.625000 0.750000
vt 0.478510 0.242213
vt 0.521490 0.242214
vt 0.478510 0.007786
vt 0.478510 0.117214
vt 0.625000 0.132786
vt 0.625000 0.242214
vt 0.625000 0.125000
vt 0.625000 0.007786
vt 0.625000 0.117214
vt 0.521490 0.242214
vt 0.478510 0.242213
vt 0.625000 0.007786
vt 0.625000 0.117214
vt 0.625000 0.242214
vt 0.625000 0.132786
vt 0.478510 0.007786
vt 0.478510 0.117214
vn 0.0000 0.0000 1.0000
vn -1.0000 0.0000 0.0000
vn 0.0000 -1.0000 0.0000
vn 1.0000 0.0000 0.0000
vn 0.0000 0.0000 -1.0000
vn 0.0000 1.0000 0.0000
vn 0.1711 0.9853 0.0000
vn -0.1711 -0.9853 0.0000
usemtl Material
s off
f 1/1/1 43/2/1 92/3/1 91/4/1
f 139/5/2 16/6/2 29/7/2 30/8/2
f 76/9/2 141/10/2 136/11/2 21/12/2
f 65/13/3 68/14/3 100/15/3 8/16/3
f 72/17/4 87/18/4 116/19/4 17/20/4
f 83/21/4 9/22/4 53/23/4 52/24/4
f 124/25/2 123/26/2 57/27/2 58/28/2
f 123/26/2 21/12/2 56/29/2 57/27/2
f 84/30/4 83/21/4 52/24/4 60/31/4
f 12/32/4 2/33/4 47/34/4 49/35/4
f 68/14/4 69/36/4 99/37/4 100/15/4
f 69/36/4 70/38/4 102/39/4 99/37/4
f 101/40/5 102/39/5 64/41/5 63/42/5
f 10/43/5 9/22/5 25/44/5 26/45/5
f 65/46/2 73/47/2 24/48/2 6/49/2
f 73/47/2 129/50/2 124/25/2 24/48/2
f 135/51/6 7/52/6 155/53/6 157/54/6
f 130/55/2 76/9/2 21/12/2 123/26/2
f 74/56/5 75/57/5 146/58/5 145/59/5
f 20/60/1 19/61/1 107/62/1 110/63/1
f 13/64/2 8/65/2 34/66/2 35/67/2
f 16/6/2 132/68/2 133/69/2 29/7/2
f 77/70/4 78/71/4 27/72/4 28/73/4
f 72/17/7 17/20/7 27/72/7 78/71/7
f 71/74/8 10/43/8 26/45/8 77/70/8
f 17/20/1 101/40/1 28/73/1 27/72/1
f 38/75/1 115/76/1 30/77/1 29/78/1
f 104/79/1 103/80/1 35/81/1 34/82/1
f 103/80/1 106/83/1 134/84/1 35/81/1
f 106/83/1 105/85/1 133/86/1 134/84/1
f 105/85/1 38/75/1 29/78/1 133/86/1
f 17/20/4 116/19/4 115/76/4 38/75/4
f 131/87/2 13/64/2 35/67/2 134/88/2
f 101/40/4 17/20/4 38/75/4 105/85/4
f 39/89/5 40/90/5 108/91/5 114/92/5
f 128/93/2 127/94/2 36/95/2 37/96/2
f 8/16/3 100/15/3 104/79/3 34/97/3
f 18/98/3 39/89/3 114/92/3 112/99/3
f 89/100/6 142/101/6 140/102/6 118/103/6
f 118/103/6 140/102/6 46/104/6 117/105/6
f 45/106/5 33/107/5 119/108/5 121/109/5
f 21/12/2 136/11/2 51/110/2 56/29/2
f 30/77/1 115/76/1 117/105/1 46/111/1
f 139/5/2 30/8/2 46/112/2 140/113/2
f 56/29/5 51/110/5 52/24/5 53/23/5
f 48/114/5 50/115/5 49/35/5 47/34/5
f 50/115/5 58/28/5 55/116/5 49/35/5
f 58/28/5 57/27/5 54/117/5 55/116/5
f 57/27/5 56/29/5 53/23/5 54/117/5
f 52/24/5 51/110/5 59/118/5 60/31/5
f 24/48/2 124/25/2 58/28/2 50/115/2
f 6/49/2 24/48/2 50/115/2 48/114/2
f 138/119/6 84/30/6 60/31/6 59/120/6
f 9/22/4 10/43/4 54/117/4 53/23/4
f 10/43/4 11/121/4 55/116/4 54/117/4
f 11/121/4 12/32/4 49/35/4 55/116/4
f 2/33/3 6/122/3 48/123/3 47/34/3
f 136/11/2 138/124/2 59/118/2 51/110/2
f 81/125/4 82/126/4 63/42/4 64/41/4
f 70/38/6 11/121/6 62/127/6 81/125/6
f 11/121/1 10/43/1 61/128/1 62/127/1
f 71/74/3 101/40/3 63/42/3 82/126/3
f 10/43/3 71/74/3 82/126/3 61/128/3
f 102/39/6 70/38/6 81/125/6 64/41/6
f 62/127/4 61/128/4 82/126/4 81/125/4
f 84/30/6 138/119/6 142/101/6 89/100/6
f 101/40/8 71/74/8 77/70/8 28/73/8
f 9/22/7 72/17/7 78/71/7 25/44/7
f 26/45/4 25/44/4 78/71/4 77/70/4
f 80/129/3 44/130/3 154/131/3 153/132/3
f 132/68/2 16/6/2 76/9/2 130/55/2
f 15/133/3 126/134/3 150/135/3 148/136/3
f 13/64/2 131/87/2 129/50/2 73/47/2
f 8/65/2 13/64/2 73/47/2 65/46/2
f 12/32/4 11/121/4 70/38/4 69/36/4
f 2/33/4 12/32/4 69/36/4 68/14/4
f 9/22/4 83/21/4 87/18/4 72/17/4
f 6/122/3 2/33/3 68/14/3 65/13/3
f 16/6/2 139/5/2 141/10/2 76/9/2
f 85/137/1 86/138/1 97/139/1 95/140/1
f 43/2/4 1/1/4 83/21/4 84/30/4
f 1/1/4 66/141/4 87/18/4 83/21/4
f 79/142/4 43/2/4 84/30/4 89/100/4
f 66/141/4 79/142/4 89/100/4 87/18/4
f 85/137/4 3/143/4 116/19/4 87/18/4
f 41/144/4 86/138/4 89/100/4 118/103/4
f 3/143/4 41/144/4 118/103/4 116/19/4
f 86/138/4 85/137/4 87/18/4 89/100/4
f 93/145/4 91/4/4 92/3/4 94/146/4
f 96/147/4 95/140/4 97/139/4 98/148/4
f 86/138/3 41/144/3 98/148/3 97/139/3
f 79/142/5 66/141/5 93/145/5 94/146/5
f 66/141/6 1/1/6 91/4/6 93/145/6
f 41/144/5 3/143/5 96/147/5 98/148/5
f 3/143/6 85/137/6 95/140/6 96/147/6
f 43/2/3 79/142/3 94/146/3 92/3/3
f 20/60/4 4/149/4 100/15/4 99/37/4
f 18/98/4 19/61/4 102/39/4 101/40/4
f 19/61/4 20/60/4 99/37/4 102/39/4
f 32/150/4 31/151/4 103/80/4 104/79/4
f 40/90/4 39/89/4 105/85/4 106/83/4
f 31/151/4 40/90/4 106/83/4 103/80/4
f 39/89/4 18/98/4 101/40/4 105/85/4
f 4/149/4 32/150/4 104/79/4 100/15/4
f 110/63/4 107/62/4 108/91/4 109/152/4
f 111/153/4 110/63/4 109/152/4 113/154/4
f 107/62/4 112/99/4 114/92/4 108/91/4
f 4/149/1 20/60/1 110/63/1 111/153/1
f 32/150/6 4/149/6 111/153/6 113/154/6
f 40/90/5 31/151/5 109/152/5 108/91/5
f 31/151/5 32/150/5 113/154/5 109/152/5
f 19/61/1 18/98/1 112/99/1 107/62/1
f 88/155/4 33/107/4 115/76/4 116/19/4
f 45/106/4 90/156/4 118/103/4 117/105/4
f 90/156/4 88/155/4 116/19/4 118/103/4
f 33/107/4 45/106/4 117/105/4 115/76/4
f 119/108/4 120/157/4 122/158/4 121/109/4
f 90/156/3 45/106/3 121/109/3 122/158/3
f 88/155/1 90/156/1 122/158/1 120/157/1
f 33/107/6 88/155/6 120/157/6 119/108/6
f 23/159/2 22/160/2 123/26/2 124/25/2
f 74/56/2 23/159/2 124/25/2 129/50/2
f 22/160/2 75/57/2 130/55/2 123/26/2
f 75/57/2 74/56/2 129/50/2 130/55/2
f 15/133/2 14/161/2 131/87/2 132/68/2
f 14/161/2 125/162/2 129/50/2 131/87/2
f 126/134/2 15/133/2 132/68/2 130/55/2
f 125/162/2 126/134/2 130/55/2 129/50/2
f 127/94/2 128/93/2 132/68/2 131/87/2
f 128/93/2 37/96/2 133/69/2 132/68/2
f 37/96/2 36/95/2 134/88/2 133/69/2
f 36/95/2 127/94/2 131/87/2 134/88/2
f 67/163/2 5/164/2 136/11/2 141/10/2
f 44/130/2 80/129/2 142/165/2 138/124/2
f 5/164/2 44/130/2 138/124/2 136/11/2
f 80/129/2 67/163/2 141/10/2 142/165/2
f 42/166/2 7/52/2 139/5/2 140/113/2
f 7/52/2 135/51/2 141/10/2 139/5/2
f 137/167/2 42/166/2 140/113/2 142/165/2
f 135/51/2 137/167/2 142/165/2 141/10/2
f 145/59/2 146/58/2 143/168/2 144/169/2
f 157/54/2 155/53/2 156/170/2 158/171/2
f 152/172/2 151/173/2 153/132/2 154/131/2
f 147/174/2 148/136/2 150/135/2 149/175/2
f 126/134/1 125/162/1 149/175/1 150/135/1
f 44/130/1 5/164/1 152/172/1 154/131/1
f 42/166/3 137/167/3 158/171/3 156/170/3
f 67/163/5 80/129/5 153/132/5 151/173/5
f 137/167/1 135/51/1 157/54/1 158/171/1
f 22/160/1 23/159/1 144/169/1 143/168/1
f 14/161/5 15/133/5 148/136/5 147/174/5
f 23/159/6 74/56/6 145/59/6 144/169/6
f 125/162/6 14/161/6 147/174/6 149/175/6
f 5/164/6 67/163/6 151/173/6 152/172/6
f 75/57/3 22/160/3 143/168/3 146/58/3
f 7/52/5 42/166/5 156/170/5 155/53/5
